<svg xmlns="http://www.w3.org/2000/svg" width="92" height="90" viewBox="0 0 92 90">
    <path fill="#8C532E" fill-rule="evenodd" d="M91.232 39.56c1.804 11.961-2.95 24.36-10.805 33.408-7.172 8.272-16.999 14.68-28.102 16.113-6.118.78-10.866.017-16.873-1.317-12.616-2.8-24.745-12.045-30.214-23.78-3.806-8.139-5.77-17.64-4.432-26.555 1.361-9.198 6.68-17.703 13.32-24.157 3.12-3.027 6.4-5.418 10.349-7.202 3.44-1.536 5.695-3.517 9.444-4.227 9.955-1.88 20.106-1.97 29.418 2.227C73.025 8.448 82.502 16.9 86.874 26.464c1.784 3.9 3.714 8.858 4.358 13.095zm-28.766 7.31c1.083.664-.237-.143 0 0 1.083.664 2.387.938 2.824 1.791.193.684-1.53-.26-1.111.997.979 2.91 4.212 3.067 5.912 6.121 2.188 3.94 2.909 3.997-.45 7.215-1.571-2.678-4.53-5.745-5.293-8.689-1.036-3.997-8.986-5.644-8.861-6.444.592-3.86 4.588-2.447 6.979-.99zm-3.29-13.199c-1.465-.613.542.227 0 0-1.465-.613-2.475-.957-3.44-2.187-.06-.28 8.615 2.884 9.404 3.184 2.18.827 4.49 3.744 6.078 5.3 2.2 2.155 11.736 10.81 6.559 13.503-1.893-8.145-11.188-16.67-18.6-19.8zm-8.35-4.445c.898.483-1.239-.657 0 0 .898.483 1.687.867 2.32 1.693-4.602-1.883-9.146-4.127-12.928-7.37-1.226-1.051-8.628-6.935-8.5-7.262.343-5.014 6.567 3.1 7.884 4.284 3.484 3.107 7.012 6.408 11.225 8.655zM57.52 50.84c5.12 2.207 5.384 8.438 9 12.138 3.264 3.321 4.812.22 7.453-2.383 1.463-1.427 1.642-3.44 2.956-4.884 1.446-1.584 3.173-1.96 4.45-3.778 2.03-2.91-1.85-5.964-3.57-8.478-6.552-9.578-16.825-11.895-26.455-17.1C46.93 23.95 39.126 18.902 36.34 14.64c-3.278-5-6.424-.466-7.423 3.748 2.256-.257 2.895 4.167 8.892 8.164 5.946 3.958 12.87 6.165 19.51 8.758 5.69 2.22 10.386 5.911 14.05 10.719 2.021 2.647 3.775 5.488 5.56 8.288-1.402.867-2.056 2.414-3.132 3.58-3.356-3.613-4.69-8.784-8.13-12.228-.295-.294-5.039-4.688-4.91-4.584-2.73-2.174-7.68-3.718-11.662-5.868-4.602-2.48-9.46-4.77-13.307-8.365 2.81 5.475 6.264 7.742 11.824 10.449 1.825.88 10.382 3.824 9.102 6.57-.67 1.428-12.173-3.033-14.459-4.78.41 2.334 3.711 4.78 5.662 5.374 2.103.637 1.595 1.974 3.237 2.987 2.008 1.324 4.182 2.378 6.366 3.388zM40.035 61.834c1.523 1.153-1.51-1.147 0 0 1.523 1.153 3.044 3.784 3.741 5.37-.315.287-1.08.13-1.415.397 1.246 4.964 7.216 12.452-.708 14.333-.278-7.865-1.192-13.386-6.37-19.507 1.142-1.297 3.241-1.74 4.752-.593zm5.137-9.985c-1.144-1.174.742.76 0 0-1.144-1.174-2.543-2.274-2.929-4.277 5.459 2.837 19.877 27.477 10.812 29.164.931-8.041-2.2-19.053-7.883-24.887zm-11.137-.55s-1.68-2.084 0 0c1.886 2.343 4.287 4.167 3.945 7.864-5.983-.93-12.254-11.395-14.726-16.063-1.507-2.85-3.298-5.574-4.246-8.678-1.388-4.56.078-4.31 3.203-6.514 0 0-.985 4.787 11.824 23.39zM51.7 74.217c.092.763-.196-1.674 0 0 .417 3.537-1.375 2.814-4.043 4.774-2.055-4.44-1.073-9.572-2.123-14.236-.26-1.153-6.339-7.194-2.827-6.368-2.547-2.623-24.468-28.754-18.502-32.142-2.536 1.44 14.107 21.777 15.16 22.89C46.458 56.606 50.488 63.86 51.7 74.219zm-25.212-50.51s.362-.314 0 0c.582-.554 1.226-1.05 2.221-1.2.89 4.78 3.454 9.508 5.763 13.742 1.632 2.974 4.422 6.374 5.462 9.551-2.827-1.897-13.69-22.05-13.446-22.093zm4.808-1.756c-1.159-4.517-7.599 2.267-9.106 4.134-1.923 2.377-5.834 2-7.473 4.33-1.388 1.968 1.392 6.065 2.049 7.952 1.432 4.12 4.266 5.671 6.748 8.965 1.602 3.204 3.986 6.598 6.366 9.052 1.991 2.063 2.157 5.047 4.118 7.424 4.95 6.005 2.363 13.159 6.091 19.353 3.271.82 7.74-2.247 10.047-4.164 1.767-1.477 5.465-1.933 7.676-2.727 2.499-.903-1.544-12.428-2.062-13.929-3.044-8.788-9.89-13.582-15.014-20.853-3.941-5.608-8.205-12.836-9.44-19.537z"/>
</svg>
