<svg xmlns="http://www.w3.org/2000/svg" width="90" height="90" viewBox="0 0 90 90">
    <path fill="#6F3C2F" fill-rule="evenodd" d="M89.623 39.487c1.781 12.126-2.91 24.684-10.663 33.859-7.072 8.389-16.77 14.885-27.721 16.334-6.033.793-10.718.022-16.639-1.332-12.449-2.84-24.424-12.213-29.812-24.105C1.038 55.993-.904 46.366.41 37.325c1.345-9.323 6.591-17.944 13.143-24.483C16.63 9.775 19.87 7.346 23.76 5.54c3.396-1.56 5.62-3.566 9.317-4.284 9.83-1.908 19.836-1.996 29.031 2.262 9.557 4.432 18.9 12.998 23.219 22.698 1.757 3.946 3.661 8.97 4.296 13.272zM65.887 49.635a28.01 28.01 0 0 1-4.708 3.187c-2.092 1.114-3.942 2.065-6.297 2.26-2.485.21-4.821 1.154-7.356 1.145-1.242 0-2.464-.338-3.678-.034-1.11.28-2.238.137-3.357-.103-.635-.136-1.126-.376-1.718-.596-.669-.25-1.445-.254-2.142-.45-1.46-.418-2.828-1.093-4.174-1.786-.678-.352-1.218-.71-1.963-.934-.58-.175-.997-.501-1.51-.803-1.19-.688-2.503-.755-3.534-1.79-1.035-1.04-2.254-2.106-2.916-3.434-.187-.371-.968-1.972.194-1.344.286.154.592.738.844.975.323.314.668.609 1.037.873 1.206.853 2.48 1.588 3.714 2.39 1.134.744 2.569 1.233 3.815 1.779 1.605.702 3.35 1.068 4.965 1.759.874.376 2.087.97 3.019 1.119.314.047.642-.058.958-.046.947.038 1.836.398 2.79.374 1.087-.022 2.177-.074 3.263-.074 1.346 0 2.695-.024 4.037-.09.661-.035 1.443.018 2.087-.145.441-.11.75-.386 1.189-.386v-.096c.927 0 1.766-.04 2.439-.7.632-.613 1.409-.776 2.207-1.164.476-.237.996-.364 1.464-.618.45-.24.833-.611 1.334-.76.427-.127.899-.057 1.292-.319.393-.26.668-.711 1.025-1.042l.024-.019c.271-.252.635-.362.899-.575.63-.518.982-1.63 1.39-2.355.304-.544 1.12-1.064 1.12-1.752 0 .122.348.304.399.415.107.23.048.618.072.865.035.416.098.785.04 1.202-.215 1.43-1.22 2.207-2.264 3.072zM28.791 33.718c.318-.757 1.25-1.505 1.639-.637.28.63.445 1.15.917 1.698.525.609.875 1.045 1.038 1.872.15.798.553 1.212 1.1 1.758.323.32.309.942.45 1.357.122.38-.005.793.192 1.171.182.36.52.671.771.978.338.412.491.966.83 1.402.354.455.514.946.524 1.562.014.664-.328 1.318-.22 1.977.06.371.421.642.52.987.064.24.074.712-.26.745-.34.038-.634-.38-.86-.551-.364-.276-.754-.563-.982-.973-.371-.654-.072-1.478-.477-2.118-.24-.381-.608-.597-.81-1.037-.333-.715-.848-1.385-1.044-2.147-.137-.518-.163-1.057-.324-1.565a2.426 2.426 0 0 0-.472-.827c-.402-.47-.716-1.076-.973-1.634-.294-.625-.829-1.11-1.109-1.742a9.564 9.564 0 0 1-.544-1.63c-.045-.184-.005-.414.094-.646zM41.334 30.3c.02-.036.036-.07.065-.103.201-.287.642-.472.973-.422.515.08.903.738 1.143 1.14.285.475.623.854.987 1.266.393.44.254 1.143.594 1.565.127.153.338.141.467.297.19.22.103.541.202.793.282.724.778 1.325 1.114 2.025.352.738.366 1.483.59 2.24.061.192.21.34.272.527.065.213.041.458.103.673.113.417.355.762.616 1.095.386.492.793.966.99 1.567.275.825.481 1.673.846 2.47.122.27.352.408.5.653.147.24.123.464.173.73.038.209.16 1.196.426 1.254.034.01.06-.005.094 0-.149.448.261 1.974-.753 1.55-.44-.185-.843-.17-1.063-.68-.14-.317-.094-.72-.29-1.005-.216-.302-.628-.39-.846-.697-.48-.659-.578-1.545-.966-2.233-.191-.34-.472-.633-.604-1.014-.134-.402-.388-.606-.345-1.066.034-.42.055-.541-.182-.97-.5-.872-.843-1.79-1.38-2.653-.244-.39-.67-.575-.81-1.037-.22-.767.316-1.687-.22-2.382-.29-.381-.379-.692-.352-1.174.024-.362-.017-.74-.336-.968-.58-.429-.982-.68-1.296-1.347-.254-.536-1.011-1.45-.712-2.094zm13.322.549c.614-.487 1.182.572 1.429.987.299.506.524.685.963 1.035.407.324.764.774 1.078 1.193.223.295.34.664.56.961.4.53.868.923 1.06 1.574.122.43.175.968.436 1.359.314.465.781.812 1.148 1.217.532.592.517 1.562.879 2.265.117.24.276.45.355.714.098.34.052.69.052 1.04.005.352.103.74.031 1.085-.115.623-.594.383-.982.165-.014-.012-.031-.017-.045-.029-.544-.294-.576-.761-.942-1.231-.192-.245-.472-.39-.697-.597-.329-.311-.32-.57-.463-.963-.084-.252-.27-.364-.383-.59-.31-.613-.408-1.166-.935-1.588-.467-.371-.627-.884-.74-1.457-.12-.685-.522-1.483-.865-2.084-.3-.523-.669-1.064-1.124-1.457-.575-.496-.5-1.023-.79-1.658-.305-.676-.767-1.359-.025-1.941zm15.532 10.382c-.261-.625-.834-1-1.193-1.553-.549-.843-.688-1.924-.58-2.91.139-1.292-.79-2.435-1.476-3.442-.63-.925-1.361-1.77-2.274-2.42-.855-.613-1.656-1.342-2.535-1.912-1.095-.711-2.36-1.107-3.575-1.552-.841-.314-1.807-.904-2.717-.906-.789 0-1.359.148-2.15-.134-.692-.252-1.59-.508-2.43-.619a14.472 14.472 0 0 0-2.515-.086c-.319.015-3.362-.177-3.367-.01.108 1.079-1.617-.129-2.091-.18-1.544-.164-3.336.224-4.862.454-.757.108-1.414.103-2.171.352-.942.302-1.886.63-2.882.68-1.793.084-3.108 1.925-4.635 2.689-.884.438-1.708.82-2.518 1.4-1.001.713-1.596 1.648-2.439 2.508-.482.482-.963.776-1.397 1.332-.582.745-1.466 1.807-1.466 2.818-.067.036-.137.07-.204.103v.201h-.1c.2 0-.583 1.711-.708 1.857-.785.942-.862 2.298-.788 3.47.034.568-.002.973-.081 1.519-.127.889.292 2.245.716 2.993.424.745.844 1.5 1.268 2.25.443.776 1.147 1.512 1.497 2.317.192.44.233.805.554 1.226.338.444.793.822 1.052 1.318.237.441.297.774.711 1.129.75.65 1.666.97 2.542 1.418.468.24.925.49 1.395.734 1.047.56 2.133 1.078 3.177 1.622 1.12.587 2.358.606 3.575.534 1.531-.093 3.029.026 4.45.604 1.231.493 2.695.563 3.992.75 1.05.16 2.125.081 3.18-.043 1.425-.178 2.853-.527 4.286-.602a37.355 37.355 0 0 0 3.148-.27c.755-.099 1.498-.307 2.258-.381.275-.024.517.043.795-.036.369-.103.719-.269 1.076-.413.357-.146.573-.421.906-.623.8-.486 1.698-.819 2.43-1.416.982-.807 2.02-1.346 3.078-2.048.904-.597 1.709-1.277 2.358-2.145.642-.855.683-1.346.894-2.317.24-1.119.958-2.096 1.291-3.189.604-1.998 1.376-5.041.525-7.07z"/>
</svg>
