<svg xmlns="http://www.w3.org/2000/svg" width="90" height="90" viewBox="0 0 90 90">
    <path fill="#63890A" fill-rule="evenodd" d="M88.85 34.24c2.368 9.146.88 19.205-2.652 27.85-1.653 4.065-3.707 7.59-6.604 10.809-2.518 2.8-3.815 5.52-6.947 7.645-8.343 5.678-17.578 9.736-27.729 9.44-10.548-.285-22.524-4.502-30.276-11.75-3.158-2.951-6.875-6.84-9.125-10.567-6.352-10.503-6.889-23.976-3.294-35.54 3.294-10.562 9.738-20.396 19.313-26.1C26.789 2.89 31.42 1.752 37.43.657c12.635-2.32 27.331 1.582 36.926 10.427 6.683 6.15 12.197 14.273 14.495 23.157zm-33.074-9.244c.163-1.399.516-3.127.093-4.483-.324-1.058-1.8-2.318-2.582-3.082-1.467-1.442-2.715-2.008-5.18-1.898-1.763.086-4.833-.427-6.17.2-.612.292-.828 1.194-1.298 1.698-.867.92-2.455 2.432-3.881 2.588-1.855.201-3.754-1.359-6.07-.898-.943.185-1.956 1.118-2.69 1.69-.451.35-1.051.655-1.294.895-.765.763-1.228 2.097-1.992 2.688-.456.353-1.183.42-1.692.799-.48.348-.801.938-1.296 1.294-.576.412-1.274.674-1.795 1.096-1.195.963-2.318 2.674-3.084 4.078-.905 1.654-1.723 3.852-1.392 5.774.142.84 1.042 1.652 1.594 2.292 1.13 1.304 1.79 2.177 3.089 3.286 1.032.883 1.425 1.346 3.081 1.49 2.489.214 5.071.305 6.075-.799-.156-2.438-.675-5.16-.296-7.66.428-2.866 2.352-5.185 3.881-6.776 1.284-.422 2.311-1.353 3.183-1.985a11.648 11.648 0 0 1 2.793-1.495c1.18-.427 2.499-.967 3.783-1.097 1.125-.112 2.448.276 3.981 0 .567-.098 1.143-.57 1.79-.693 1.724-.343 3.994-.137 5.175.199.88.245 1.613.905 2.194.8zm1.589 3.779c-.61-2.096-2.818-3.305-5.273-3.284a76.789 76.789 0 0 0-6.274.298c-1.01.096-2.107.408-3.182.595-3.022.54-5.981 2.033-7.87 3.485-1.027.792-2.253 2.374-2.789 3.58-.88 2.026-1.485 7.285-.993 10.256.247 1.512 1.205 3.991 2.685 4.085.9.055 1.74-.871 2.49-1.495.702-.581 1.617-1.49 1.696-2.285.089-.967-.684-2.047-1.097-2.794-.463-.83-1.041-1.66-1.097-2.786-.098-2.15 1.548-4.951 3.09-5.374.726-.199 1.874.072 2.886-.199 1.436-.394 2.588-2.004 4.181-2.695 3.343-1.435 7.003-1.289 11.547-1.387zm3.187 4.48c-.643-1.211-1.387-3.16-3.29-3.386-.353-.038-.788.091-1.19.099-4.122.088-8.907.021-10.854 1.992 3.512-.2 4.47 2.167 4.385 5.572 1.87.723 4.457.305 6.768.696.727-2.328 2.007-4.094 4.181-4.972zm-11.845 3.882c.141-1.395.276-2.643-.399-3.288-.338-.32-3.029-1.3-3.585-1.294-.807.015-3.648 3.303-3.586 3.886.218 2.102 4.805.85 7.068 1.195-.089-.422.329-.336.502-.5zm13.434-3.185c-.557.163-.816.345-1.49.199-.953.931-1.884 1.207-2.49 2.29-1.055 1.9-.702 4.701-2.188 6.168-.398.403-1.075.472-1.692.799-.938.494-1.5 1.428-2.388 1.694-1.152.341-2.712.207-4.082.399-2.264.31-4.294.672-5.873 1.296-1.018.717-1.299 2.22-2.69 2.385-1.402.168-2.931-1.538-3.985-.197.144.896 1.04 1.155 1.79 1.592.738.432 1.374 1.144 2.096 1.59 1.298.812 2.98 1.38 4.58 1.496 6.347.456 10.11-3.151 13.336-5.873.64-.54 1.411-.91 1.987-1.392 1.373-1.14 1.968-3.048 2.789-4.78.998-2.108.566-5.05.502-7.666h-.202zm-22.397.1c-1.922.034-3.153 2.945-2.887 4.779.266 1.82 2.582 3.31 2.086 5.772-.044.418-.96.809-.994 1.692-.02.67.586 1.668 1.102 1.697.777.038 1.632-1.673 2.287-2.093 2.189-1.426 7.51-1.61 10.651-1.891.65-.063 1.517-.982 1.992-1.296.684-.456 1.373-.708 1.795-1.195-.108-.862.159-1.364.197-2.093-.998-.47-1.982-.115-3.182-.295-.79-.12-1.599-.632-2.492-.699-.758-.055-1.452.226-2.193.298-1.836.187-4.438.317-5.976 0-1.944-.399-2.357-2.482-2.386-4.675zm-23.498 6.371c-2.532-2.126-5.626 1.406-3.778 3.98.108 2.015-1.425 3.208-1.795 4.482-.269.93-.24 2.916-.098 3.984.393 2.986 3.206 3.85 3.979 5.974.557 1.522.271 3.374.698 4.774.792 2.623 3.29 5.875 5.578 6.573 1.805.55 3.703-.235 5.277-.197 2.364.05 3.723 1.664 5.674 2.384 1.166.436 2.405.998 3.68 1.099 2.531.19 3.182-.903 4.78-1.891-1.637.218-2.611-.821-3.482-1.095-.807-.257-1.515-.225-2.19-.497-.628-.252-1.154-.638-1.79-1.003-1.214-.679-2.457-1.202-3.487-2.085-.696-.596-1.205-1.412-1.793-2.09-.626-.726-1.147-1.664-1.893-1.99-.783-.35-1.865-.238-2.587-.797-.516-.401-1.25-1.541-1.697-2.191-1.584-2.34-2.916-5.292-2.484-9.063.22-1.949 1.637-3.276 2.287-4.877-1.58-.264-4.078-1.536-5.076-2.884-.3-.404-.929-1.275-.797-1.798.144-.554.886-.394.994-.792zm60.234 1.294c-.137.028-.108.218-.202.3-1.528 1.977-2.066 5.316-4.377 6.765-2.026 1.277-4.716 1.56-6.571 2.69-1.558.949-2.57 2.857-3.682 4.481-.876 1.287-1.711 3.257-2.794 4.078-2.325 1.783-6.684.766-8.956 2.594-.108 3.041-2.453 3.848-3.886 5.573.694 1.044 1.517 2.009 2.99 2.688.783.363 1.776.435 2.592.795.624.278 1.152.919 1.786 1.099.562.153 1.294.026 1.992.098 2.513.255 3.68-.28 5.278-1.399 1.665-1.16 3.465-2.436 3.984-4.574.196-.828.096-2 .396-2.688.724-1.656 2.81-3.008 4.284-3.584 3.03-1.2 6.936-.422 7.963-3.388.458-1.32.285-3.293.895-4.58.52-1.09 1.534-1.99 1.987-3.384.447-1.322 1.027-3.446.699-4.778-.248-1.027-2.633-3.053-4.378-2.786zm-47.484 4.577c-2.583-.02-4.942.168-6.675 1.003-1.2 1.2-1.912 2.453-1.996 4.176-.183 4.044 1.658 7.44 4.185 8.467 1.195.478 2.518.24 3.389 1.092.655.632.413 1.304.694 2.288.556 1.953 2.414 3.163 3.782 4.185.26.243.487-.103.895 0 3.01 2.302 7.402.876 10.651.094.44-.655 1.34-.835 1.899-1.395.59-.59 2.011-2.647 1.692-3.78-.23-.81-1.387-.765-1.992-1.096-.475-.26-.713-.936-1.195-1.097-.437-.137-.98.045-1.392-.091-.382-.142-.687-.524-.994-.701-.588-.329-1.913-.999-2.395-1.097-.663-.132-1.395.07-1.995 0-2.304-.269-4.387-1.306-5.37-2.69-1.791-2.506-.774-6.394-3.183-9.358zm3.58 4.083c-.3 2.045.409 3.758 1.3 4.776 1.691 1.968 4.036 1.706 6.86 1.797 1.076.032 1.815 1.25 2.49 1.688 2.467.33 3.83 2.078 6.868 1.792.98-.088 1.772-.638 2.696-.895 1.855-.518 3.055-.74 4.377-1.591.463-.302 1.056-.598 1.49-.9 2.012-1.366 2.794-2.796 3.788-4.877.324-.68.708-1.915 1.293-2.388.718-.58 2.148-.806 3.185-1.293 4.097-1.932 7.61-3.802 8.957-8.561.146-.5.158-1.354.103-1.894-.22-1.997-.835-4-1.589-5.777-3.098-1.056-2.676-5.421-4.087-8.056-1.45-2.724-4.267-4.277-8.757-3.881-1.205.103-1.875.48-3.29.693-.445 1.69-1.923 3.298-1.196 5.374.334.94 1.764 1.406 1.495 2.69 1.27 1.018 2.655 1.93 2.887 3.982.47-.163.879-.389 1.594-.3.802 1.514.254 3.492.398 5.275.108 1.359.377 2.686.197 3.886-.312 2.208-1.692 3.22-3.084 4.579-.833.809-1.663 1.505-2.39 2.287-1.457 1.575-2.808 3.991-4.678 4.68-.717.257-1.632.144-2.09.298-.511.175-1.037.825-1.594 1.195-1.313.878-2.779 1.397-4.377.197-.677.209-1.188-.26-1.796-.396-1.497-.33-3.098-.091-4.478-.497-.64-.19-1.433-.662-2.095-.996-.73-.37-1.5-.646-2.086-.996-.945-.562-1.584-1.442-2.39-1.891z"/>
</svg>
