<svg xmlns="http://www.w3.org/2000/svg" xmlns:xlink="http://www.w3.org/1999/xlink" width="90" height="90" viewBox="0 0 90 90">
    <defs>
        <path id="a" d="M0 0h89.979v89.52H0z"/>
    </defs>
    <g fill="none" fill-rule="evenodd">
        <mask id="b" fill="#fff">
            <use xlink:href="#a"/>
        </mask>
        <path fill="#EDE300" d="M77.795 14.59C84.91 21.86 88.24 31.37 89.813 41.317c.582 3.733-.526 6.516-.841 10.258-.365 4.294-1.54 8.168-3.368 12.136-3.877 8.4-10.163 16.266-18.422 20.68-8.024 4.285-17.687 5.701-26.69 4.93-12.971-1.097-25.817-9.27-32.729-20.113C4.486 64.062 2.155 59.88.857 53.904c-2.378-10.868.386-22.23 5.824-31.741C12.635 11.725 22.784 3.052 34.751.646 38.99-.195 44.34-.084 48.634.25c10.544.81 21.754 6.783 29.162 14.34zM44.835 4.433c-.537-.242-1.648-.289-2.301-.1-1.149 3.193-1.874 6.514-2.672 9.808-.39 1.625-.852 3.228-1.267 4.848-.192.746.185 1.992-.6 2.445-.568.326-1.955-.055-2.583-.081-.919-.035-5.042-.542-5.381.893-.426 1.779-.294 3.9-.178 5.708 2.442-.083 1.585 2.555 1.592 4.289.002 2.721.002 5.44 0 8.16-.007 4.094-.014 8.194-.024 12.291-.01 4.093-.012 8.188-.005 12.28.005 4.07.022 8.143.06 12.212.01 1.014.019 2.025.033 3.037.005.397-.1.81.166 1.153.177.227.506.46.788.54.358.104.787.045 1.154.045H53.74c.666 0 1.35-.043 2.016.002.523.038.843-.004 1.203-.443a3.007 3.007 0 0 0 .713-1.928c.007-.807.016-1.617.021-2.427.036-4.071.052-8.14.062-12.205.004-4.095.002-8.185-.01-12.275-.005-4.095-.014-8.192-.019-12.287 0-2.312-.005-4.619 0-6.926 0-1.106-.616-4.81.405-5.447.111-.064.796.206.708-.183-.386-1.712.725-5.428-.502-6.302-.743-.535-2.562-.201-3.796-.201-.56 0-1.142-.036-1.696.019-.275.026-.775.239-1 .225-.814-.05-1.001-.749-1.432-1.343-.94-1.277-1.381-3.276-1.914-4.874-1.218-3.648-2.38-7.312-3.664-10.933zm-4.024 57.82c0 .896 0 1.4.036 1.976 0 .286.033.57.033.86 0 .61-.069 1.29-1.217 1.29-.218 0-1.367-.03-1.62-.03-1.075 0-1.293 0-1.542.03-.576.038-.644.038-.789.038-.575 0-1.293-.068-1.293-1.186 0-.285.109-1.616.109-1.938.033-.5.033-1.29.033-1.866 0-.682-.111-3.948-.111-4.706 0-.682.111-4.093.111-4.846 0-.609-.07-3.664-.07-4.38 0-.288.07-1.832.07-2.188 0-.722-.142-1.44-.142-2.157-.038-.183-.038-1.004-.038-1.151 0-1.04.83-1.04 1.296-1.04.395 0 2.404.073 2.873.073.14 0 1.004-.073 1.181-.073.827 0 1.15.358 1.511 1.402.285.753.61 1.506 1.294 2.729.25.502.537.933.822 1.432.18.29.326.578.433.867.287.642.753 1.687 1.078 1.687.286 0 .608-.79.717-1.045.18-.357 1.04-2.082 1.22-2.475.324-.684.542-1.364.827-2.046l.646-1.293c.253-.54.467-1.04.9-1.185.104-.037 1.11-.11 1.217-.11.143 0 .505 0 .9.037.358 0 .751.036.898.036.142 0 1.686-.036 1.76-.074.142 0 .248-.033.393-.033.36 0 .827.289.827.93 0 .219-.038 1.01-.074 1.258-.07 1.185-.142 2.371-.142 2.48 0 .358.036 2.084.036 2.475 0 .862-.07 5.244-.07 6.213 0 .575.07 3.235.07 3.843 0 .574-.11 3.484-.11 4.167 0 .357.145 2.122.145 2.546 0 .97 0 1.58-.862 1.58-.213 0-.431 0-.609-.031a35.728 35.728 0 0 0-2.013-.074c-.393 0-.79 0-1.184.036-.216.038-.467.038-.68.038-.43 0-.646-.074-.862-.218-.398-.285-.467-.54-.467-1.005 0-.217 0-.286.07-.933.073-.398.073-.79.073-1.186v-1.831c0-.29-.036-.573-.036-.895 0-.18.142-1.187.142-1.44 0-.287-.106-1.834-.106-2.189 0-.144.038-.9.038-1.08 0-.07-.038-.466-.038-.535 0-.18 0-.33-.142-.33-.074 0-.183.041-.323.292-.149.218-.18.322-.466 1.22-.147.433-1.045 2.41-1.225 2.875-.322.72-.573 1.255-1.148 1.255-.647 0-.789-.068-1.08-.466-.211-.322-1.076-1.976-1.324-2.333a5.763 5.763 0 0 1-.398-.65c-.18-.283-.967-2.294-1.293-2.294-.14 0-.14.36-.14.535 0 .431-.109 2.589-.109 3.09 0 .468.033.932.033 1.434 0 0-.033 1.186-.069 1.33v1.259z" mask="url(#b)"/>
    </g>
</svg>
