<svg xmlns="http://www.w3.org/2000/svg" width="90" height="90" viewBox="0 0 90 90">
    <path fill="#E2231A" fill-rule="evenodd" d="M44.48 35.729c2.364-2.816 2.59-7.804 6.123-9.16 3.516-1.347 6.082-1.743 9.635.04 7.038 3.532 10.506 12.81 10.464 20.194-.092 14.474-11.965 26.584-26.72 26.433-14.616-.153-26.53-11.878-26.567-26.401-.02-7.754 3.43-15.86 10.164-20.097 4.263-2.68 16.825 2.98 16.9 8.708v.283zm5.868-22.455c.129 2.689-1.719 4.264-2.088 6.78 2.903.15 5.9.868 8.345-.094-1.467 2.152-3.911 3.339-6.28 4.272-4.041 1.582-4.225 2.218-5.542 6.439-3.386-2.87-4.817-4.873-9.15-5.996-.873-.225-7.986-1.156-7.154-3.048.74-.568 6.664-1.381 7.85-1.47 1.193-1.106-.228-4.66.293-6.163.587-1.689 4.264 2.491 4.775 2.964 2.505 2.304 7.043-2.286 8.951-3.684zm30.2 4.08c-2.126-3.137-4.845-4.428-7.648-6.948-3.211-2.902-6.745-4.955-10.81-6.61C53.446.273 43.39-1.22 34.244 1.151c-8.885 2.29-17.007 7.814-23.157 14.495C2.239 25.239-1.664 39.933.658 52.573 1.75 58.576 2.894 63.21 6.029 68.46c5.697 9.583 15.536 16.025 26.102 19.318 11.558 3.597 25.037 3.055 35.542-3.293 3.725-2.247 7.613-5.97 10.564-9.13 7.247-7.744 11.459-19.725 11.748-30.272.298-10.16-3.762-19.383-9.437-27.729z"/>
</svg>
