<svg xmlns="http://www.w3.org/2000/svg" width="90" height="90" viewBox="0 0 90 90">
    <path fill="#AC162C" fill-rule="evenodd" d="M89.624 39.485c1.777 12.123-2.91 24.687-10.663 33.863-7.073 8.385-16.769 14.882-27.722 16.33-6.037.797-10.723.024-16.644-1.333-12.45-2.838-24.418-12.21-29.812-24.106C1.034 55.99-.905 46.363.413 37.325c1.341-9.328 6.59-17.944 13.142-24.487 3.078-3.064 6.312-5.492 10.21-7.302 3.39-1.56 5.612-3.56 9.314-4.283C42.9-.652 52.912-.742 62.103 3.517c9.56 4.431 18.91 13 23.22 22.692 1.76 3.952 3.664 8.974 4.301 13.276zM43.114 4.95c-.519-.24-1.6-.286-2.237-.098-1.118 3.21-1.823 6.552-2.6 9.856-.38 1.633-.83 3.245-1.234 4.873-.186.75.178 2.004-.585 2.457-.551.328-1.902-.055-2.513-.081-.897-.036-4.91-.545-5.239.897-.415 1.788-.286 3.921-.175 5.738 2.38-.084 1.545 2.568 1.552 4.31.002 2.736.002 5.47 0 8.202-.01 4.12-.019 8.237-.026 12.355-.007 4.114-.009 8.23-.002 12.344.005 4.09.02 8.184.058 12.274.009 1.02.018 2.036.032 3.052.004.4-.097.814.157 1.16.175.228.498.461.772.545.348.102.766.043 1.12.043h19.594c.648 0 1.314-.04 1.955.002.516.038.827-.005 1.178-.445a3.035 3.035 0 0 0 .687-1.938c.012-.812.023-1.626.028-2.44.034-4.092.05-8.18.06-12.267.004-4.114 0-8.223-.01-12.34-.004-4.115-.016-8.231-.018-12.347-.005-2.321-.005-4.643 0-6.961 0-1.114-.6-4.838.394-5.478.109-.064.773.207.69-.183-.38-1.721.705-5.457-.49-6.33-.723-.543-2.496-.207-3.695-.207-.544 0-1.114-.034-1.65.019-.268.026-.755.24-.976.226-.791-.05-.973-.753-1.393-1.343-.915-1.288-1.346-3.297-1.863-4.906-1.185-3.666-2.317-7.35-3.571-10.99zm-7.448 47.715c0-.476-.107-2.897-.107-3.448 0-.552.107-3.231.107-3.817 0-.767-.036-1.503-.069-2.27-.038-.443-.07-.92-.07-1.363 0-.694 0-1.391.86-1.391.354 0 2.078.036 2.468.036.288 0 1.684-.075 1.97-.075.683 0 1.217 0 1.217 1.065 0 .295-.107 1.614-.107 1.905 0 .261.036 1.544.036 1.837 0 .217-.036 1.21-.036 1.43 0 .111 0 .66.18.66.215 0 .321-.256.357-.365.108-.331.576-1.358.682-1.65.107-.22.213-.44.324-.661.177-.332.286-.7.425-1.029.215-.513.466-1.065.68-1.578.112-.254.182-.476.289-.73.29-.884.642-.959 1.148-.959.283 0 .572.039.857.075.463.039.931.075 1.361.075.392 0 2.22-.111 2.648-.111.397 0 .825.259.825.733 0 .33-.286.992-.466 1.397-.427.842-.498.953-.966 2.09-.182.477-.751 1.617-1.035 2.164-.217.366-.467.733-.647 1.14-.142.293-.824 1.83-1 2.198-.257.476-.576 1.103-.576 1.471 0 .254.071.474.215.77.43.99.967 2.127 1.22 2.969.174.477.285.917.43 1.396.106.255.68 1.649.788 1.983.175.474.355.987.534 1.466.18.55.395 1.063.61 1.578.106.404.217.806.394 1.213.144.365.36.697.499 1.06.18.37.394.883.394 1.357 0 .806-.749.884-.93.884h-1c-.182 0-1.221-.04-1.434-.04-.359 0-2.08.076-2.47.076-.967 0-1.146-.806-1.258-1.322a53.118 53.118 0 0 0-1.32-4.22c-.147-.33-.255-.697-.397-1.065-.106-.33-.215-.658-.321-.987-.255-.734-.468-1.286-.683-1.286-.283 0-.25.514-.25 1.063.035.402 0 2.386 0 2.863 0 .697 0 1.394.073 2.09.073 1.1.106 1.213.106 1.504 0 .588-.07.808-.106.92-.248.476-.683.476-1.255.476-.25 0-1.467-.036-1.752-.036-.215 0-1.29.036-1.54.036-.145 0-.863.073-1.042.073-.501 0-.967-.368-.967-.881 0-.404.144-2.348.144-2.788 0-.404-.073-2.202-.073-2.64 0-.407.073-2.387.073-2.863 0-.736-.037-1.467-.037-2.24v-2.238z"/>
</svg>
