<svg xmlns="http://www.w3.org/2000/svg" width="90" height="90" viewBox="0 0 90 90">
    <path fill="#F1C549" fill-rule="evenodd" d="M89.622 39.486c1.784 12.123-2.906 24.687-10.665 33.86-7.067 8.388-16.763 14.882-27.718 16.335-6.032.795-10.72.02-16.643-1.336-12.45-2.84-24.418-12.211-29.813-24.1C1.03 55.993-.905 46.364.414 37.327c1.342-9.324 6.589-17.946 13.14-24.49 3.08-3.066 6.322-5.497 10.21-7.301 3.392-1.556 5.616-3.558 9.315-4.284C42.905-.65 52.916-.74 62.107 3.517c9.56 4.426 18.907 12.993 23.222 22.696 1.755 3.955 3.659 8.976 4.293 13.273zM34.817 70.782c-.874-.749-1.461-1.471-1.4-3.297 1.935-2.54 5.315-1.97 7.681-2.288 5.087-.696 9.147-3.276 12.178-6.594 1.166-1.267 2.705-3.368 3.394-5.189.353-.919.59-2.269.896-3.489.625-2.44 1.212-4.755 1.4-7.785.118-1.913-.07-4.632-.105-6.686-.03-2.41-.644-7.162 2.402-6.29 1.81.526 3.022 4.474 3.396 6.591.682 3.915.55 8.266.595 12.176.045 3.707-.6 8.238-1.6 11.674-.954 3.302-3.128 6.099-5.186 8.586-3.105 3.737-6.589 6.053-12.576 6.487-4.661.329-8.655-1.8-11.075-3.896zM21.84 64.297c2.402 4.611 5.116 8.304 9.277 11.276 1.926 1.376 4.25 2.392 6.888 3.396 2.468.933 5.874 1.722 8.889 1.296 1.345-.192 2.896-.696 4.289-1.1 8.462-2.427 13.438-8.355 16.865-15.664 1.199-2.558 1.566-4.75 2.295-7.787 2.525-10.528.327-22.102-3.19-30.044-1.916-4.315-4.753-9.07-7.89-12.275-3.651-3.723-9.186-7.134-16.562-6.087-2.157.306-4.007 1.208-5.793 2.193-2.072 1.149-4.232 3.112-5.888 4.993-6.423 7.268-11.648 18.147-12.173 31.339-.26 6.53 1.04 12.673 2.993 18.464z"/>
</svg>
