<svg xmlns="http://www.w3.org/2000/svg" width="90" height="90" viewBox="0 0 90 90">
    <path fill="#00C8F3" fill-rule="evenodd" d="M72.9 10.406c-3.211-2.902-6.745-4.955-10.81-6.61C53.446.273 43.39-1.22 34.244 1.151c-8.885 2.29-17.007 7.814-23.157 14.495C2.239 25.239-1.664 39.933.658 52.573 1.75 58.576 2.894 63.21 6.029 68.46c5.697 9.583 15.536 16.025 26.102 19.318 11.558 3.597 25.037 3.055 35.542-3.293 3.725-2.247 7.613-5.97 10.564-9.13 7.247-7.744 11.459-19.725 11.748-30.272.298-10.16-3.762-19.383-9.437-27.729-2.126-3.136-4.845-4.427-7.648-6.947zm-43.554 4.498c-.109.025-.149.131-.194.242h.199c1.831 1.554 4.993 1.276 8.13 1.501 5.024.378 9.676.253 14.082 0 2.385-.125 4.659-.483 6.249-1.623-9.124 1.062-19.342.9-28.466-.12m30.447-1.04c-.145 1.377.724 4.112-.299 5.235-.492.548-2.446.8-3.764 1.05-4.134.779-7.78.926-12.593.82-2.814-.08-5.94.045-8.625-.352-1.59-.24-6.758-.545-7.345-2.096-.459-1.254.182-3.961.104-4.787 9.448-2.321 22.964-2.346 32.522.13M56.553 21c.53.92.448 1.57.775 2.237.596 1.213 1.635 1.796 2.11 3.12.887 2.488.437 6.948.471 10.023.116 8.786.155 17.818-.094 26.972-.045 1.817.023 3.961-.196 5.45-1.108 7.759-9.395 9.529-18.376 9.15-2.12-.086-4.536-.434-6.414-1.07-4.118-1.383-7.163-3.964-7.549-9.053-.486-6.203.199-13.058-.007-19.762-.1-3.336-.096-6.539-.096-9.73 0-3.669-.628-9.279.48-12.17.222-.595 1.553-1.817 2.101-2.918.247-.52.174-1.654.67-2.054.498-.39 2.585.167 3.734.288 3.075.349 7.134.534 9.185.495 4.198-.081 8.887-.346 13.207-.978M33.122 49.855c.368.09.368.538.374.683v.187c.005.11.01.218.01.246 0 .078-.005.352-.01.58v.078c0 .094-.011.184-.006.211.006.14.01.483.024.826l.005.135c.011.362.02.709.02.817 0 .115-.02.425-.038.704v.105c-.02.155-.036.286-.036.332 0 .082.011.163.016.241v.124c.015.113.009.242.009.354v1.482c0 .33-.005.676-.039 1.007-.034.483-.027.529-.034.67 0 .321.034.432.145.616a.364.364 0 0 0 .246.174c.07.021.18.056.252.056.179.009.33.052.456.09l.145.031c.248.058.49.148.733.23l.219.079c.106.043.185.078.25.078.016.009.025.009.043.009h.01c.029-.062.02-.557.024-.819.005-.177-.018-.676-.038-1.145l-.01-.087a121.23 121.23 0 0 0-.022-.89c.005-.277.014-.962.018-1.659a87.87 87.87 0 0 0 .014-3.42 55.374 55.374 0 0 1-.014-1.573c-.004-.404 0-1.57.014-2.702l.004-.96c.01-.675.005-1.239.005-1.476.011-.172 0-.639-.005-1.08v-.152c-.004-.37-.004-.704-.004-.826 0-.053.009-.485.034-1.046l.04-1.026c.014-.2.032-.83.02-1.021.005-.297-.085-.396-.108-.4l-.045.013a.309.309 0 0 1-.102.012c-.013.002-.106.023-.449.018-.16.005-.367 0-.422-.011.02.025-.042 0-.11-.019-.072-.009-.176-.03-.275-.03-.127-.025-.212-.043-.278-.05l-.059-.002a.767.767 0 0 1-.121-.019h-.018c-.12 0-.384.028-.427.037-.038.034-.138.412-.203.632l-.115.4c-.066.23-.126.45-.199.66-.02.097-.045.212-.079.336l-.043.207c-.08.35-.15.704-.248 1.045-.09.324-.487 1.642-.57 1.908-.152.546-.296.999-.59 1.003-.34-.044-.491-.508-.771-1.63l-.016-.06a5.472 5.472 0 0 0-.183-.656l-.146-.448a8.45 8.45 0 0 1-.242-.757 24.516 24.516 0 0 1-.61-2.215c-.16-.828-.265-.848-.437-.869-.034-.005-.074-.005-.11-.01l-.334.01h-.08a17.87 17.87 0 0 1-.934-.156l-.11-.014c-.131-.023-.237-.044-.28-.048C27.24 39 27.196 39 27.158 39c-.108 0-.158 0-.158.28.005.654.014.76.014.76.004.292.02.538.036.76l.004.06c.011.304.032.578.032.845.004.115-.01.39-.016.696v.283c-.014.267-.016.504-.016.596 0 .301.002 1.143.016 1.89.007.578.016 1.118.016 1.31 0 .231-.01.816-.02 1.441l-.005.387c-.011.733-.027 1.435-.027 1.676 0 .278.016 1.037.027 1.773l.004.143c.005.67.02 1.297.02 1.534 0 .425 0 .998-.02 1.373 0 .097-.01.42-.022.731l.007.06c-.016.248-.036.478-.036.566 0 .54.187.67.403.777.077.044.138.062.339.138.056.014.126.044.289.122l.435.202c.086.037.452.219.655.322l.092.037a.251.251 0 0 0 .126.032c0-.006.05-.03.043-.4 0-.096-.004-.193-.009-.296-.009-.132-.009-.247-.009-.361-.016-.44-.016-.826-.016-1.525v-.964c.012-.117.025-.492.046-1.03a9.734 9.734 0 0 1-.02-.444v-.113c-.01-.18-.01-.363-.01-.533 0-.219.014-.865.032-1.429l.02-.94c-.009-.27.014-.474.106-.63l.075-.127.178-.041.03.016c.257.073.378.411.708 1.718l.043.168a8.659 8.659 0 0 0 .25.826c.072.165.206.63.366 1.163.104.377.205.727.25.844.1.248.1.248.296.304.043-.046.13-.391.2-.596.019-.108.095-.386.183-.71l.01-.042c.14-.495.324-1.178.358-1.368l.025-.13c.12-.593.133-.7.221-.892.034-.098.149-.407.393-.407m7.341 1.995l-.095-.004c-.922-.035-.922-1.107-.922-1.559 0-.495.076-1.044.124-1.406.024-.221.047-.454.069-.69.034-.465.074-.905.15-1.362.056-.323.13-.862.175-1.224.05-.724.245-1.111.57-1.111.082 0 .508.048.574.954.024.194.037.397.053.607l.01.17c.01.109.021.226.035.35.02.233.05.466.079.695.032.26.06.527.08.788.113 1.107.12 2.243.12 2.372 0 .54-.12.932-.364 1.171-.259.245-.558.245-.658.25M42.384 60h.034c.1 0 .336-.018.55-.041.193-.021.37-.042.43-.042l.574.035.23.018c.185.012.373.025.473.025h.048c.074-.013.277-.35.277-.908 0-.263-.024-.546-.053-.848a7.125 7.125 0 0 1-.09-.588l-.026-.16c-.03-.25-.071-.5-.108-.732l-.016-.118c-.146-1.24-.304-2.513-.376-3.785-.079-1.538-.095-1.688-.195-2.476a45.524 45.524 0 0 0-.182-1.474l-.082-.68c-.161-1.275-.32-2.513-.365-2.93-.016-.14-.034-.44-.066-.795l-.037-.45c-.055-.632-.106-1.31-.13-1.512a57.263 57.263 0 0 0-.29-2.338c-.13-1.058-.243-1.095-.74-1.095-.909.058-1.601.058-2.33 0l-.344-.03a3.406 3.406 0 0 0-.621-.071L38.84 39c-.476.005-.608 0-.89 1.9a58.405 58.405 0 0 0-.173 1.738c-.05.592-.095 1.199-.171 1.81-.045.35-.1.703-.154 1.044-.06.401-.11.802-.16 1.213-.035.283-.054.546-.075.811l-.01.092c-.006.231-.035.461-.05.69-.043.44-.104.903-.154 1.348a59.75 59.75 0 0 0-.275 2.7c-.063.708-.105 1.273-.148 1.487-.01.161-.037.339-.063.512-.021.168-.048.35-.069.514a87.28 87.28 0 0 1-.156 1.42c-.248 2.153-.288 2.57-.293 2.619 0 .122.06.378.15.44.07.03.162.051.273.07l.084.009c.127.034.526.074.775.099.195.02.359.03.412.04.071.015.209.047.38.089l.095.018c.109.03.397.093.45.093l.055.182-.005-.178c.066.005.24.005.25-.673l.011-.277c.066-1.38.114-1.897.199-2.107.171-.424.494-.482.8-.482.056 0 .124 0 .193.007l.489.026c.62.041.803.05.946.17.362.26.394.796.441 1.469l.006.099c.037.431.063.871.063 1.289 0 .705.198.719.317.719m2.856-20.737c-.117 0-.158 0-.215.227-.006.048-.025.127-.025.169-.005.09.066.36.276 1.167l.013.057c.267.987.496 2.004.722 3.201.194.969.254 1.14.529 2.096l.04.146a50.12 50.12 0 0 1 .941 3.617l.28 1.384c.183.832.213 1.026.235 1.264.022.208.041.49.041.784v.178c-.02.506-.01.596-.01.614.01.278.015.493.029.717.01.222.016.439.016.663 0 .12-.01.465-.03.795l-.005.088c-.01.259-.02.501-.02.585 0 .076 0 .372.01.582l.01.247v1.618c0 .282.057.409.098.458.055.064.12.094.188.073.188-.025.368-.043.523-.073l.18-.033c.115-.01.423-.055.646-.095l.501-.071c.123-.016.412-.046.461-.067.19-.058.289-.393.294-.99 0-.168-.01-.635-.03-1.08v-.054c0-.423-.013-.825-.013-.97-.006-.144.008-.516.019-.911l.013-.206c.011-.432.025-.86.025-1.003 0-.187-.006-.377-.014-.575 0-.206-.005-.382-.005-.564 0-.41.024-.79.084-1.167.074-.571.248-1.151.434-1.754.06-.183.117-.375.171-.56.251-.903.45-1.72.575-2.258.077-.335.156-.656.243-.968.035-.162.076-.323.112-.476l.103-.476c.03-.171.085-.344.128-.527l.057-.194c.221-.908.922-4.07.979-4.4.07-.292.163-.895.15-1.124 0-.221-.041-.284-.15-.379a1.397 1.397 0 0 0-.295-.018c-.092.005-.33.028-.528.053l-.335.026c-.186.018-.344.004-.502 0l-.21-.012c-.133 0-.267-.005-.406.005-.406.02-.501.025-.716 1.811l-.055.384c-.073.564-.155 1.209-.321 1.84-.066.3-.35 1.999-.368 2.241-.074.705-.39.78-.532.78-.351 0-.411-.313-.548-1.156-.043-.23-.152-.844-.253-1.385l-.112-.582c-.03-.192-.065-.333-.076-.42l-.106-.71c-.02-.227-.052-.455-.08-.682-.166-1.044-.34-1.692-.422-1.837-.054-.093-.128-.141-.237-.141l-.66.048-.23.01c-.26.02-.489.039-.568.039-.147 0-.414-.018-.651-.035-.18-.009-.34-.014-.398-.014m11.588 16.414c-.774 0-.774-1.858-.77-2.97-.004-.356.011-1.355.024-2.302l.004-.695c.008-.601.012-1.119.012-1.33 0-.15-.004-.5-.012-.874l-.004-.252c-.01-.442-.013-.864-.013-1.007.004-.846.004-2.822.906-3.02.03 0 .061-.008.09 0 .217 0 .73.159.803 1.742.029.525.057 1.477.057 1.885.004.088-.01.348-.01.598l-.007.518c0 .26.008.516.008.776 0 .267.013.537.01.81.003.186-.018.702-.03 1.212-.015.5-.028 1.033-.028 1.178 0 .081 0 .216.008.378.005.488 0 .825-.008.974-.025 1.318-.305 2.118-.847 2.342a.437.437 0 0 1-.193.037M57.412 39c-.094 0-.19.005-.309.022-1.258.145-1.452.469-1.81 1.053-1.032 1.622-1.299 3.392-1.293 8.607 0 .164.006.523.01.915l.004.275c.01.479.013.948.013 1.134 0 .11-.004.385-.004.712l-.006.547c0 .442-.003.874-.003 1.001 0 .212.045 2.114.113 2.779.024.302.216 1.75.392 2.356.416 1.45 1.383 1.953 2.556 1.347.48-.25.755-.55 1.04-.876.381-.488.68-.861 1.11-2.18.329-.988.446-1.708.603-3.718.141-1.583.145-1.818.157-4.466 0-.327.007-.643.007-.962.008-.339.008-.65.008-.97 0-2.967-.232-4.96-.7-5.932-.055-.127-.235-.385-.348-.532l-.082-.116c-.521-.687-.812-.996-1.458-.996"/>
</svg>
