<svg xmlns="http://www.w3.org/2000/svg" width="90" height="90" viewBox="0 0 90 90">
    <path fill="#63890A" fill-rule="evenodd" d="M89.622 39.488c1.784 12.117-2.907 24.684-10.664 33.862-7.071 8.387-16.76 14.878-27.717 16.328-6.032.796-10.718.026-16.643-1.33-12.447-2.84-24.416-12.213-29.808-24.104C1.038 55.992-.904 46.364.41 37.326 1.757 27.998 7 19.38 13.55 12.838c3.084-3.062 6.323-5.497 10.213-7.302 3.391-1.56 5.622-3.559 9.316-4.285C42.903-.65 52.913-.742 62.105 3.514c9.56 4.433 18.91 13 23.221 22.696 1.758 3.96 3.661 8.973 4.296 13.278zM71.323 61.455c-.523.045-.573-.478-.646-.895-.043-.216-.386-2.238-.048-2.262.727-.047 1.244.284 1.805.708.69.526.777 1.663.865 2.454-.01-.13-.792-.206-.912-.218-.375-.036-.708.187-1.064.213zm-4.44 7.115c-.652-.197-.56-.87-.597-1.876.528-.594 2.47-1 2.664 0 .15.73-1.213 2.13-2.068 1.876zm-1.287-8.192c.005.05-.184.222-.227.26a.639.639 0 0 1-.305.208c-.263.083-.235.252-.157.458.06.175-.047.445-.125.61a1.56 1.56 0 0 1-.995.846c-.407.111-.855.043-1.175-.244-.092-.083-.17-.17-.272-.248-.097-.081-.166-.171-.126-.306.071-.249.367-.367.417-.625.01-.043-.014-.112.005-.157.088-.203.431.053.538.13a.72.72 0 0 0 .646.15c.635-.13.452-1.253.448-1.698 0-.296-.022-.663.135-.924.17-.282.547-.22.8-.09.116.06.249.135.33.251.068.104.054.254.063.379.02.334-.009.666 0 1zm-6.221 7.204c-.102-1.153 1.693-1.94 2.965-1.677.753 2.326-2.81 3.387-2.965 1.677zm-2.698-9.291c-.092-.27.062-.618.5-.874.357-.213.376-.118.781.021.33.112.98.211.867.71-.106.458-1.033.56-1.393.553-.421-.005-.68-.18-.755-.41zm.27 4.08c-.18.162-.388.278-.62.316-1.403.22-1.448-1.104-.652-1.959.336-.36 1.476-.917 1.952-.597.68.467-.268 1.869-.68 2.24zm-7.61 6.635c-.357-.168-.75-.635-.272-.924.355-.208 1.196-.14 1.632-.289.35-.12 2.946-1.23 3.154-.51.251.877 1.81 1.623.247 2.166-.858.298-1.871-.105-2.722-.244-.587-.097-1.411.02-1.951-.164a.484.484 0 0 1-.088-.035zM46.644 53.76c1.291.093 2.364-.924 1.68-2.172.573-.248.753.756 1.087 1.087-.462.595-1.151.96-1.087 2.073-.763-.126-1.564-.213-1.68-.988zm-1.814 8.316c-.282-.147-.147-.69.159-1.092.263-.346.656-.573 1.073-.69a2.235 2.235 0 0 1 1.335.024c.552.187.78.68.247.931-.704.336-1.535.488-2.262.777-.263.102-.44.109-.552.05zm-1.196 4.63c.277.223.277.594.398.933.24.69 1.582 1.698 1.549 2.347-.047.827-1.348.609-1.781.415a2.905 2.905 0 0 1-1.443-1.421c-.246-.53-.343-1.168-.094-1.717.218-.465.689-.903 1.208-.664a.696.696 0 0 1 .163.107zm-2.721-2.629c-.301.08-.332-.249-.495-.493-.865-1.274-2.786-.5-3.941-1.333-.074-.973-.63-1.665-1.417-2.198-.379-.258-2.164-.985-1.83-1.547.116-.184.383-.151.582-.22.408-.137.751-.523 1.184-.573.7-.08 1.024.535 1.976.488-.258.014.255 1.487.338 1.62.277.45.704.817 1.194 1.016.637.265 1.215.206 1.783-.154.484-.305.58-.289.7.3.144.683.347 1.472.347 2.166 0 .25-.073.784-.353.902l-.068.026zm-13.614-25.32c.713 1.693 2.932 2.391 5.232 2.173-1.137 2.615-6.859.85-5.232-2.174zm1.412 13.845c-.519.201-1.48-.694-1.81-1.042-.54-.576-.19-1.632-.402-2.33-.112-.387-.282-.763-.545-1.074-.121-.144-.8-.509-.83-.61-.281-1.021-.267-2.243-.227-3.295.038-.805.597-.552 1.18-.327.682.254 1.402.325 2.11.161.062.209-.125.65.097.694-.597.497-1.411.649-1.582 1.379-.17.755.062 1.518.791 1.866.339.156.732.199 1.102.168.457-.043.98-.282 1.165.284.204.614-.102 1.282.204 1.928-.04-.092-.68.872-.718.957-.133.33-.152.881-.398 1.144a.438.438 0 0 1-.137.097zm-5.765-17.81a.258.258 0 0 1-.064.026c-.15-.337.407-2.04.17-2.182.375.225.81.301 1.213.102.19-.088.569-.658.805-.493.124.088.064 1.277.055 1.277-.865.223-1.407.983-2.18 1.27zm1.272 6.901c-.472.175-1.118-.966-1.234-1.26-.01-.014.722-.163.805-.168.592-.033.907 1.156.48 1.402-.018.012-.032.017-.051.026zm-.67-11.92c.149.142.44.642.101.689-.37.08-.184-.604-.102-.69zM36.31 46.378c.3.173.331.829.412 1.134.17.708.583 2.174-.182 2.69-.794.54-1.485-1.316-1.535-1.91-.033-.434.038-.893.272-1.268.159-.248.583-.731.922-.682.04.005.078.02.11.036zM16.14 40.73c-.383-.092-.082-.495-.097-.793.417-.017.112.623.097.793zM75.122 59.75c-.232-.978-.58-1.862-1.037-2.534-1.222-1.796-2.622-3.463-4.538-4.54a10.81 10.81 0 0 0-3.456-1.182c-3.834-.6-7.659-.169-11.55-1.289-1.166-.336-2.34-.566-3.427-1.137-1.223-.637-3.077-2.17-4.413-2.162-.149-.812-.047-2.04-.668-2.548-.694-.576-1.909-.325-2.588-.839-.756-.573-.493-1.819-1.047-2.499-1.814-2.2-5.057-3.322-6.814-5.371-.929-1.083-1.646-2.577-2.646-3.75a16.269 16.269 0 0 1-2.363-3.692c-2.16-4.637-7.435-13.486-13.702-8.95-1.004.722-3.848 2.463-4.173 3.761-.218.865.597 1.551.573 2.376-.026.937-.86 1.762-.98 2.702-.213 1.65-.38 3.588-.244 5.348.102 1.374.86 2.487 1.141 3.775.412 1.93 1.291 3.65 2.15 5.41.46.937 1.083 2.105 1.292 3.244.14.749-.126 1.89.19 2.658.295.727.722 1.222.949 1.9.438 1.302.606 2.86 1.693 3.827 1.201 1.068 2.16 1.001 2.89 2.538.582 1.225 1.217 2.805 2.23 3.735.898.82 2.346.524 3.103 1.545 1.843 2.487.562 5.298 4.844 5.113.732.519 1.338 1.599 2.364 1.97.952.346 1.96.04 2.823.654.952.692.807 1.61 2.001 2.013.663.225 1.44.02 2.184.318 1.037.41 1.582 1.385 2.863 1.163.67 1.084 2.92 1.61 4.94 1.281.626-.102 1.05-.488 1.87-.393 1.563.182 3.436 1.11 4.983.945.883-.092 1.797-.763 2.7-.955 2.877-.615 5.402-2.148 8.24-2.79 3.256-.736 5.615-2.048 7.187-5.15.832-1.654.938-4.3.436-6.495z"/>
</svg>
