<svg xmlns="http://www.w3.org/2000/svg" width="89" height="89" viewBox="0 0 89 89">
    <g fill="none" fill-rule="evenodd">
        <path fill="#6F3C2F" d="M88.625 40.767c-1.549-9.812-4.839-19.198-11.856-26.37C69.465 6.94 58.399 1.044 47.997.248c-4.246-.331-9.53-.443-13.706.389C22.494 3.012 12.461 11.567 6.6 21.865 1.23 31.25-1.496 42.463.842 53.19c1.281 5.89 3.583 10.025 6.826 15.098 6.814 10.698 19.499 18.76 32.284 19.843 8.881.762 18.421-.635 26.339-4.858 8.152-4.362 14.36-12.119 18.19-20.41 1.8-3.913 2.965-7.738 3.315-11.976.306-3.69 1.393-6.437.83-10.12"/>
        <path fill="#FFFFFE" d="M21.514 29.929c.135.092.199.263.291.393 1.43.012 2.286-1.577 1.675-2.95-.685.826-1.694 1.323-1.966 2.557m12.022-.438c-.126-.1-.152-.31-.2-.547-.058-.32.093-1.173-.36-1.203-.62-.043-1.16 1.122-1.47 1.53-.26.329-.578.61-1 .705-.213.05-.466.05-.393-.236.05-.19.332-.278.337-.5.01-.251-.175-.38-.225-.602-.043-.203.04-.334-.107-.526-.241-.303-.755-.374-1.051-.108-.318.284-.37.968-.375 1.37 0 .403.154.586-.29.728a7.505 7.505 0 0 0-1.142.469c-.34.182-.858.587-.67-.11.092-.338.146-.688.22-1.036.052-.209.388-1.014.241-1.182-.237-.268-.879.469-1.014.649-.34.46-.582.985-.892 1.463-.31.47-.642.915-1.161 1.156-.573.263-1.184.325-1.814.291-.313-.018-.597-.009-.832-.274-.203-.223-.232-.569-.416-.813-.5-.646-1.194-.708-1.078-1.864-.213-.379-.684-.497-.883-.89v-.682c-.723-.374-2.324-1.682-2.165-2.947.092-.705 1.096-1.065 1.572-1.572.758-.813 1.49-1.677 2.419-2.307.222-.152.46-.289.708-.398.144-.06.43-.26.563-.265.14-.007.45.232.543.329.14.145.151.268.147.452-.003.209-.007.36.042.578a6.047 6.047 0 0 0 1.509 2.747c.933.998 2.132 1.696 3.302 2.364.135.076.265.152.397.23 2.12.026 4.344.069 6.585-.1 1.224-.092 2.47-.655 3.728-.781.68-.071 1.46-.064 2.112-.263.524-.154 1.038-.417 1.566-.59 1.15-.371 2.326-.708 3.34-1.395.738-.502 1.3-1.207 1.84-1.906.523-.668.814-1.471 1.082-2.271.547-1.616-.043-3.913-1.004-5.258-.486-.673-1.114-1.222-1.803-1.684a12.461 12.461 0 0 0-1.096-.64c-.178-.092-.95-.599-1.12-.54 3.431-1.326 8.085-.691 10.115 1.28a6.045 6.045 0 0 1 1.63 2.747c.13.48.314 1.22.156 1.707-.036.12-.268.39-.337.59-.13.36-.26.715-.383 1.075-.31.872.004 1.945-.481 2.74-.403.664-1.082 1.128-1.639 1.646-.51.47-1.097.839-1.68 1.206-1.03.64-1.794 1.345-2.664 2.162-.466.44-1.025.777-1.515 1.182-.446.363-.747.862-1.282 1.116-.464.215-.954.144-1.426.338-.537.211-.98.751-1.577.884-1.523.324-3.702.166-5.208 0-.765-.09-1.426-.524-2.16-.495-.33.014-.587.232-.902.296-.164.038-.27.019-.34-.045"/>
        <path fill="#FFFFFE" d="M41.067 12.74c-.047.137-.213.317-.564.554-.648.443-1.392.675-2.032 1.13-.627.445-1.203.963-1.743 1.515-1.077 1.106-1.994 2.357-2.984 3.539-.495.59-1.009 1.17-1.563 1.7-.365.35-1.208 1.322-1.73 1.383-1.54.176-3.215 2-4.715.69.048-1.308 1.464-1.431 2.262-1.772 2.383-1.03 3.998-2.85 5.895-4.417.685-.564 1.502-1.014 2.16-1.573.82-.696 1.37-1.729 2.15-2.484.384-.37.87-.808 1.431-.872.292-.033 1.55.23 1.433.607M72.203 26.379c-.942.95-2.723.057-4.14-.15-.5-.068-1.013.083-1.189-.485-.106-.348.107-.765.121-1.118.05-1.419-1.703-3.39-3.008-3.837-.651-.222-1.321-.383-1.999-.54-.919-.22-1.835-.246-2.778-.364-1.435-.185-3.382-.616-2.837-2.47.519-1.763 2.517-2.637 4.246-2.416.801.101 1.94.492 3.046.781 2.53.659 5.924 2.475 7.563 3.934 1.319 1.163 2.96 3.766 1.475 5.698-.111.439-.286.749-.5.967M14.737 55.868c.227.031.365.154.69.1.047-1.582.568-2.703.975-3.932-1.54.244-1.48 2.553-1.665 3.832m3.83-3.635c.471.919.083 2.33.587 3.045.232.005.296-.172.587-.099.214-1.165-.05-2.693-.689-3.337-.317-.033-.466.114-.485.39m19.257-11.988c1.116.44 2.65.935 4.126.689.98-2.295-4.64-3.216-4.126-.69m1.476-2.848c.256.876 2.83.644 3.534.49.184-.237.097-.817 0-1.083-.87-.622-3.968-.897-3.534.593m15.428-7.757c-.46 1.09-1.158 1.682-.2 2.255 1.734-.228 1.813-2.11 2.16-3.733-1.236-1.125-1.558.493-1.96 1.478m2.747-.298c-.355.93-1.082 1.951.2 2.062 1.392.116 2.178-2.356 2.945-3.142-.883-.375-.883.7-1.48.686-.767-.02-.635-.85-.684-1.667-.69.433-.63 1.123-.98 2.06m-4.025-3.341c-.523 1.148-1.852 1.388-2.757 2.063-1.665 1.238-2.702 3.133-3.536 5.208.228 1.506-.68 3.178-.393 5.106.102.69.455 1.504.687 2.165.249.691.71 1.328 1.078 1.769 1.404.199 2.714.5 3.635 1.18 4.325.433 10.19 1.61 14.348.29.388.008.57.216.883.297 2.935-.734 5.872-1.464 8.162-2.847 1.821-2.186 4.917-4.896 4.024-9.53-.18-.946-.94-1.846-1.961-2.163.675 2.02-.649 4.237-1.281 5.893-.529-.737-.737-1.81-1.67-2.16-.412-.152-.964.007-1.374-.1-.663-.17-1.212-.77-1.869-.983-1.042-.329-2.43-.222-3.642-.488-.74-.165-2.063-.322-3.233-.492-.433.781-1.606.812-2.752.883-.209-.952.092-1.319.393-1.963-.01-.583-.772-.415-.985-.786-.734.788-.704 1.908-.98 2.75-.36.31-.86-.214-1.277-.197-.588.026-1.024.5-1.573.592-.767.125-2.068.182-2.951 0-.246-.055-.606-.382-.883-.396-.801-.042-1.8.616-2.549.592-.862-1.253.92-2.59 1.568-3.44.398-.53.412-1.098.98-1.472.99-.656 2.36-.367 3.544-.888.388 0 .184-.592.388-.784 3.51-.298 5.066 1.215 8.354 1.379 2.1.097 4.109-.349 6.19 0 .42.066.763.336 1.175.388 1.244.159 2.132-.152 3.243 0 3.562.476 5.241 3.709 6.091 6.977.446 1.703.723 3.963.393 6.483-.48.14-1.15.1-1.369.49.18 2.008-.542 3.136-1.48 4.232-.533.619-1.364 1.7-1.966 1.862-1.106.3-2.576.784-4.024.883-3.168.237-6.75.697-10.127.4-.699-.068-1.305-.362-1.956-.494-1.578-.325-2.79-.576-4.13-.986-1.528-.464-2.814-1.4-5.107-1.08-.48-.05-.44.422-.888.396-1.694-1.094-3.93-1.646-5.895-2.46-.393-.806-1.374-1.654-1.772-2.556-.244-.562-.194-1.42-.883-1.471-.569-.04-.924.84-1.277 1.184-.61.59-1.321.919-1.873 1.369-.924 1.4-3.676 1.5-5.985 2.068-1.398.334-2.577.985-3.636 1.57-3.396.564-5.217 2.71-7.074 4.81-.282.017-.642-.052-.791.102-.666 1.066-1.55 1.776-2.156 3.048-.258.538-.248 1.44-.693 1.864-.43.417-1.388.5-1.962.592-1.155.175-2.33.142-3.495.107-.877-.033-2.073.184-2.814-.353.324-.384 1.009-3.167.18-3.212-.587-.035-.907 1.507-.985 1.928-.176.95-1.18 1.848-2.127 1.05-.251-.214-.199-.477-.159-.787.097-.708.45-1.38.69-2.046.182-.493 1.087-1.79.682-2.26-.275-.308-.484-.125-.723.088-.445.388-.68 1.175-.888 1.71-.272.691-.33 1.72-.722 2.333-.69 1.066-2.02-.415-2.506-1.026-.659-.833-1.208-1.88-1.379-2.934-.343-2.158.263-3.97.787-5.699.296-.975.282-1.665.883-2.363.56-.652 1.36-1.27 1.966-1.959.263-.306 1.286-2.345 1.67-1.582.305.606-.597 2.418-.727 3.055-.443 2.165-.616 4.924.824 6.774.957.72 2.747 1.703 4.81 1.57.732-.043 1.63-.466 2.46-.781 2.62-1.005 4.622-2.655 7.665-3.245 1.343-.26 3.077-.303 4.031-1.078.618-.507.725-1.39 1.277-2.063.462-.575 1.456-1.06 2.164-1.575 1.504-1.101 2.689-1.876 3.83-3.439.341-.476.67-.582.782-1.182.125-.672.241-1.804.203-2.356-.033-.381-.253-1.618-.694-2.257-1.068-1.575-2.896-1.222-5.11-1.379-1.218-.083-2.435-.485-3.636-.644-.014-.635 1.724-.424 2.165-.535.466-.116.869-.502 1.378-.587 3.68-.63 8.891.222 11.1 1.378 1.17 1.608 2.651 2.913 2.554 5.795.514-2.86 1.416-5.333 2.257-7.858 1.393-1.528 3.377-2.456 5.114-3.638.762.244 1.28-.097 2.067-.1M20.482 32.115c-.116.154-.457.208-.883.177-.412-.026-2.189-.066-2.407-.495-.68-1.352-1.184-2.586-.689-4.322.057-.14.379-.021.393-.197 1.26.277 1.66 1.582 2.156 2.613.3.627.658 1.125 1.162 1.608.292.284.356.485.268.616"/>
        <path fill="#FFFFFE" d="M25.048 66.09c.083.672.36 1.145.79 1.47.835-.867 2.66-.744 3.83-1.279-.523-2.023-3.135-.185-4.62-.192M62.98 59.8c.175.677 1.492.55 2.354.393 1.549-2.16-2.804-2.07-2.354-.393m-39.501-2.65c.957.4 2.29.281 3.14.982.394-.364.773-.736.782-1.478-1.224-.336-2.67-.466-3.33-1.373-.194.627-.44 1.198-.592 1.868m1.869-4.327a2.969 2.969 0 0 1 1.916.209c.267.125.516.291.743.492.107.095.204.197.301.303.074.088.126.2.232.268-.199-.516-.58-.995-.897-1.442-.173-.24-.344-.481-.5-.725a4.57 4.57 0 0 1-.227-.386c-.204-.358-.32-.156-.555.047-.149.138-.315.256-.473.384-.258.21-.578.483-.54.85m23.582-2.164c-.069-.07.024-.209-.12-.263-.093-.034-.2.047-.297.035-.125-.012-.137-.092-.222.06-.083.156-.04.305-.031.47.005.152-.01.301.014.448.04.315.128.616.199.92.064.274.097.549.175.821.04.154.06.445-.14.512-.132.045-.423-.043-.558-.062-.384-.064-.718-.225-1.05-.414-.111-.062-.218-.135-.334-.062-.097.066-.135.185-.236.237-.185.088-.389.083-.583.05-.42-.067-.815-.273-1.244-.292-1.058-.05-4.125 1.147-5.994 1.476-.523.09-.786.62-1.082.789-.533.296-1.13.255-1.77.39-2.053.427-3.398 1.656-4.713 2.65-.447.34-.67 1.36-.8 1.872a7.471 7.471 0 0 0-.225 2.404c.05.708.215 1.463.665 2.03.223.284.5.464.723.743.457.583.845 1.026 1.487 1.402.635.367 1.343.583 1.999.895.315.15.587.353.883.524.514.289 1.078.118 1.63.116.564-.003 1.156.026 1.698.166.812.215 1.502.748 2.278 1.051 2.32.91 5.007 1.175 7.444.687 3.238-.644 6.926-1.47 8.946-2.949.237-.17.436-.677.635-.919.248-.305.528-.587.81-.862.55-.528 1.132-1.016 1.688-1.537.54-.518.91-.727 1.045-1.51.14-.825.106-1.673.083-2.507-.02-.63-.417-1.78.25-2.188.283-.178.602-.291.889-.462.66-.388 1.082-.912 1.082-1.705 0-.471-.907-.749-1.25-.727-.505.026-.98.34-1.308.708-.232.258-.469 1.203-.677 1.286-.332.128-.988-.502-1.248-.663-.33-.204-1.253-.547-1.244-.943.01-.502 1.194-1.336 1.604-1.532.218-.1.592-.05.784-.197.803-.604.419-1.861-.49-1.963-.867-.1-1.208.746-1.575 1.276-.619.896-1.512 1.286-1.573 2.262a19.889 19.889 0 0 1-2.39-.293c-1.004-.183-1.994-.417-2.984-.65-.505-.115-1.004-.232-1.504-.336-.137-.028-.393 0-.457-.142-.078-.159.06-.367.088-.523.068-.31.068-.644.068-.96.01-.407-.005-.819-.064-1.222-.023-.17-.033-.677-.267-.72-.251-.047-.49.569-.737.323m-16.025-.389c-.476-.244-.724.58-.975.884.393 2.221 1.828 3.415 3.339 4.52.223-.27.348-.634.587-.885-.985-1.11-1.996-3.05-2.95-4.519m3.145.192c1.3 1.066 2.47 2.248 4.123 2.949.166-.19.578-.15.5-.588-1.471-.66-2.615-1.639-3.34-3.046-.478.183-.968.346-1.283.685m6.39-1.67c.092 1.255 1.009 1.68 1.378 2.658.725.075 1.146-.16 1.864-.1-.13-.798-.417-2.264-1.082-2.847-.52.569-1.249-.014-2.16.29m4.222-2.651c.282.32.07.774.495 1.08 1.559-.388 2.438.42 3.437.59 1.12.196 2.345-.14 3.733.097 1.407.248 3.294 1.466 4.523 2.26.46.302.844.736 1.275.985.582.336 1.307.39 1.873.689 1.535.798 3.36 2.794 4.121 4.322.846 1.696.748 3.413.694 5.997-.033 1.215.036 2.702-.3 3.534-.645 1.575-3.433 3.365-4.622 4.815-.689.85-1.046 1.797-1.96 2.458-.69.497-2.95 1.656-3.833 1.864-.54.123-1.16.071-1.572 0-1.966 1.383-4.777.782-8.257 1.08-1.67.142-3.64.938-4.81.786-.44-.052-.746-.578-1.286-.786-1.033-.412-2.48-.422-3.728-.789-2.056-.585-4.623-2.451-7.074-3.436-.53-.213-1.014-.218-1.471-.486-.602-.36-1.234-1.092-1.869-1.674-1.243-1.137-1.53-1.722-2.46-3.245-.666-1.094-1.32-3.065-.782-4.716-.834-1.766-.952-3.713-.296-5.793.258-.807.466-1.705.689-2.26.971-2.462 4.093-4.843 6.97-5.307.578-.095 1.19.074 1.777 0 .883-.12 1.653-.77 2.548-.985.755-.175 1.625-.166 2.458-.393 1.355-.363 3.02-.957 4.815-.985 1.694-.02 3.487.146 4.912.298"/>
    </g>
</svg>
