<svg xmlns="http://www.w3.org/2000/svg" width="89" height="89" viewBox="0 0 89 89">
    <g fill="none" fill-rule="evenodd">
        <path fill="#77226C" d="M76.769 14.397C69.465 6.94 58.399 1.044 47.997.248c-4.246-.331-9.53-.443-13.706.389C22.494 3.012 12.461 11.567 6.6 21.865 1.23 31.25-1.496 42.463.842 53.19c1.281 5.89 3.583 10.025 6.826 15.098 6.814 10.698 19.499 18.76 32.284 19.843 8.881.762 18.421-.635 26.339-4.858 8.152-4.362 14.36-12.119 18.19-20.41 1.8-3.913 2.965-7.738 3.315-11.976.306-3.69 1.393-6.437.83-10.12-1.55-9.812-4.84-19.198-11.857-26.37z"/>
        <path fill="#FEFEFE" d="M82.884 33.705c-.355.105-.866-.386-1.109-.606-.044-.04.025-.186-.063-.26-.086-.07-.191-.09-.282-.141-.147-.076-.32-.086-.462-.166-.46-.289-2.634-1.274-1.951-1.921a.602.602 0 0 1 .2-.135c.321-.132.617.142.889.342.45.325.957.533 1.43.817.496.295 1.052.418 1.41.914.244.344.52.977-.062 1.156m-.34 2.605a.328.328 0 0 1-.127-.01c-.36-.073-.952-.57-1.138-.76-.12-.127-.201-.315-.326-.432-.191-.186-.482-.225-.698-.38-.37-.263-.666-.586-1.072-.803-.778-.413-1.038-.64-.759-1.516.032-.112.071-.217.106-.322.122-.416 2.474 1.681 2.609 1.757.507.29 1.6 1.024 1.831 1.598.09.215-.162.822-.426.868m-.228 1.923c-.159.49-.511 1-1.091.729-.527-.242-.698-.97-1.114-1.327-.563-.487-1.21-.91-1.62-1.55-.106-.161-.126-.271-.277-.41-.12-.113-.316-.093-.402-.257-.186-.357.177-.848.531-.86.544-.015 1.396.813 1.763 1.185.23.24.565.44.852.606.477.284.932.672 1.214 1.16.12.211.19.038.235.314.022.11-.059.3-.09.41m-1.029 3.17c-.817.704-1.353-.977-1.718-1.478-.406-.548-.918-1-1.437-1.43-.502-.418-1.483-1.117-.837-1.836a.44.44 0 0 1 .142-.112c.384-.186.761.51.986.73.855.81 1.716 1.548 2.37 2.523.193.286.465.513.631.814.174.308.18.523-.137.79m-1.62 2.096c-.301.186-.504.08-.81-.076a3.14 3.14 0 0 1-1.433-1.55c-.088-.22-.068-.378-.188-.6-.137-.26-.357-.482-.517-.729-.2-.303-.528-.68-.587-1.056-.066-.41.171-.855.497-.972.164-.059.35-.034.531.134.46.428.556 1.12.952 1.601.417.506 1.014.95 1.481 1.42.603.601.967 1.276.074 1.828m-1.78 1.747c-.45.228-1.363.96-1.816.435-.27-.315-.196-.813-.355-1.178-.343-.826-1.697-1.999-1.486-2.945.11-.505.693-.713.942-1.138h.324c.24 0 .565.994.636 1.163.22.498.436 1.007.832 1.4.14.137.272.15.407.325.039.052.171.457.186.465.073.031.144.063.215.1.43.503.788 1.029.115 1.373m-3.256 1.667v.108c-.526 0-.993.051-1.334-.428-.257-.364-.286-.858-.536-1.237-.443-.674-1.219-1.608-.759-2.456.09-.183.683-.643.894-.643.707 0 .622 1.178.957 1.716.267.433.62.787.92 1.193.35.489.5 1.038.6 1.625-.24.066-.497.088-.742.122m-4.418 20.294c-.338-.259-.296-.84-.453-1.202-.206-.479-.392-.977-.622-1.442-.149-.322-.416-.581-.597-.887-.22-.364-.58-.62-.766-1.002-.147-.308-.683-.76-.301-1.088.36-.307.842-.425 1.243-.256.24.09.292.24.407.39.14.19.325.314.482.487.335.389.602.826.837 1.283.257.504.712.782.918 1.322.152.384.482.607.416 1.044-.1.618-.783 1.948-1.564 1.351m-1.37 2.3c-.743.447-.953-.599-1.24-1.004-.36-.499-.597-1.083-.937-1.601-.235-.354-.55-.655-.769-1.014-.225-.364-.279-.804-.45-1.193-.154-.357-.282-.677-.025-1.019.13-.173.33-.279.502-.391.291-.196.485-.389.686-.376.127.007.266.1.438.327.279.367.38.833.656 1.2.497.662.955 1.452 1.165 2.26.1.39.15.793.27 1.179.166.532.266 1.295-.297 1.632m-1.946 2.016c-.25.382-.688.758-1.153.834a.651.651 0 0 1-.35-.051 1.169 1.169 0 0 1-.543-.56c-.302-.694-.292-1.508-.483-2.236-.115-.457-.193-.949-.374-1.376-.152-.357-.306-.707-.436-1.078-.095-.274-.19-.601-.142-.895.034-.224.512-.862.747-.896.386-.054.702.589.85.85.3.54.57 1.193.792 1.77.22.554.465 1.131.762 1.654.105.196.271.357.381.552.24.406.201 1.037-.051 1.432m-2.994 2.598c-.161.11-.362.047-.521.171-.206.17-.096.352-.453.24a.66.66 0 0 1-.191-.093c-.306-.22-.426-.687-.48-1.034-.132-.875-.237-1.76-.438-2.62-.16-.672-.198-1.322-.274-2.006-.056-.56-.216-1.036.374-1.376.735-.42.84.785.98 1.215.176.55.396 1.085.558 1.637.14.462.34.89.399 1.383.046.43.166.821.222 1.252.05.347.184 1.002-.176 1.231m-2.308 1.18c-.09.223-.296.277-.517.333-.445.12-1.194.52-1.625.22a.589.589 0 0 1-.145-.147c-.156-.237-.215-.554-.252-.83-.049-.367-.149-.731-.173-1.093-.022-.428.095-.853.083-1.28-.03-.963-.627-2.364.338-3.08.391-.29 1.343-.755 1.363.132.005.252-.14.491-.125.753.02.384.186.784.292 1.146.11.345.264.65.296 1.014.03.328-.081.782.054 1.08.041.098.151.14.19.235.062.154.005.315.047.474.088.318.34.66.174 1.044m-3.701.994c-.24.282-.656.245-.984.277-.34.029-.737.154-1.068.022a.877.877 0 0 1-.347-.242c-.284-.316-.321-.797-.311-1.213.007-.579.022-1.16.041-1.735.025-.537.044-1.073.1-1.605.025-.247.015-.66.177-.87.093-.113.404-.13.541-.162.416-.095 1.094-.498 1.493-.146.443.39.176 1.307.196 1.828.027.62.152 1.224.206 1.842.036.455.266 1.63-.044 2.004m-7.3-6.388c-1.43-.1-2.712-.572-4.078-.912-3.53-.862-7.332-.471-10.012-3.492.438.496 1.836.005 2.284-.283 1.162-.734 2.548-1.054 3.681-1.843.882-.614 1.98-1.39 2.617-2.266.213-.295.448-.574.683-.857.793-.946 1.425-2.022 1.807-3.202.315-.98.56-2.126.692-3.14.15-1.12.412-.748 1.52-.687 1.68.102 3.386.049 5.07.049 1.53.005 2.996-.135 4.455-.597 1.454-.466 2.98-.27 4.46-.655 1.033-.261 2.544-1.121 3.51-.141 1.105 1.139.862 2.84.422 4.213-.588 1.818-1.54 3.517-2.597 5.096-1.23 1.84-2.267 3.837-4.25 4.983-1.004.581-2.108.953-3.146 1.469-.922.457-1.65 1.239-2.572 1.678-1.376.665-3.05.69-4.546.587m3.652 2.388c-.039.586-.13 1.168-.174 1.754-.031.428-.06.853-.075 1.284-.01.315.1.786.02 1.087-.187.648-1.315.049-1.683-.12-.26-.117-.509-.139-.536-.464-.014-.23.157-.46.181-.687.062-.533.12-1.065.182-1.598.053-.491.044-1.068.18-1.542.03-.098.145-.213.302-.328.316-.225 1.163-.728 1.56-.486.264.169.068.828.043 1.1M34.714 59.843c-.744.417-1.045 1.046-2.178.958-.407-.032-.762-.208-1.068-.453-.462-.361-.827-.89-1.123-1.354a12.717 12.717 0 0 1-1.635-3.978c-.235-1.027-.348-2.156-.407-3.153-.08-1.505.125-3.013.431-4.48.171-.828.301-1.669.546-2.478.673-2.256 1.72-.381 2.653.621.573.616 1.242 1.13 1.949 1.569 1.092.675 1.79 1.691 2.989 2.222.942.415 1.86.884 2.808 1.314.878.396 1.931.56 2.77.941.718.323.696.237.441 1.164-.147.55-.32 1.15-.577 1.661-.546 1.088-1.479 2.12-2.483 2.796-1.099.75-2.408 1.274-3.576 2.039-.497.327-1.104.371-1.54.61m12.519-7.431c-.14-.206-.345-.352-.526-.519-.09-.095-.164-.2-.25-.298-.08-.085-.2-.068-.286-.141-.045-.047-.04-.09-.116-.118-.144-.044-.296-.041-.44-.127-.105-.066-.2-.186-.291-.271-.027-.032-.047-.056-.091-.073-.076-.03-.162-.013-.235-.052-.1-.051-.157-.156-.252-.217-.14-.076-.336-.176-.421-.308-.071-.1-.081-.223.044-.367.027-.032.242-.186.242-.2v-.1c0 .112.37.212.45.237.206.078.397.158.573.293.17.13.382.198.583.271.14.051.125.125.22.235.084.095.191.024.292.06.093.033.159.123.23.19.134.133.274.273.46.346.262.1.262.41.257.648a8.22 8.22 0 0 1-.03.493c-.012.123-.056.328-.227.267-.086-.03-.14-.179-.186-.25m-.485 1.675c-.22-.14-.333-.296-.531-.457-.122-.1-.286-.127-.401-.252-.1-.108-.142-.26-.272-.364-.152-.115-.335-.186-.492-.296-.191-.132-.33-.33-.541-.437-.316-.164-.688-.35-.588-.77.01-.04.15-.49.15-.49.156.038.318.072.467.13.11.042.176.13.267.2.083.064.186.101.264.17.172.144.333.273.549.359.269.095.284.295.465.496.157.166.357.293.516.454.243.257.612.48.727.826.11.318-.078.633-.005.924-.058-.234-.379-.379-.575-.493m-.908 1.747c-.281-.308-.607-.572-.884-.887-.195-.223-.475-.386-.687-.59-.22-.212-.608-.451-.703-.754-.064-.2.022-.54.066-.74.191 0 .215-.135.402-.047.176.085.296.342.447.467.33.264.762.435 1.129.645.33.19.516.586.818.818.095.074.722.465.675.604-.12.29-.174.79-.482.926-.088.035-.16.044-.23.035-.23-.042-.392-.301-.55-.477m-.99 1.305c-.355-.391-.783-.733-1.114-1.129-.264-.306-.666-.677-.67-1.117-.005-.09.164-.591.14-.62.486.464.983.938 1.478 1.407.386.374.893.745 1.175 1.202.134.208.33.443.355.692.002.078-.25.809-.304.809h-.108c-.325-.4-.607-.868-.952-1.244m-1.148 1.887c-.105-.12-.13-.237-.181-.379-.154-.367-.55-.611-.752-.953-.127-.22-.186-.464-.347-.67-.096-.127-.154-.225-.12-.381.03-.137.056-.332.142-.445.044-.049.11-.076.159-.13.051-.058.046-.112.135-.134.156-.046.242.193.318.293.1.128.178.267.284.396.215.26.438.533.693.76.105.1.205.216.31.323.1.1.147.19.23.306.167.212.324.425.497.64.115.144.397.322.373.538-.02.13-.206.207-.306.278a.69.69 0 0 0-.23.296.743.743 0 0 1-.22.298.312.312 0 0 1-.138.059c-.206.041-.326-.313-.426-.448-.15-.21-.257-.454-.421-.647m-2.891-.298c-.12-.213-.15-.389-.078-.543a.679.679 0 0 1 .26-.274c.19-.12.516-.425.763-.34.16.052.26.26.33.397.23.457.532.887.828 1.305.186.268.436.484.617.755.07.105.416.581.401.704-.039.273-.788.572-.999.686-.695.38-1.072-.217-1.182-.853-.125-.723-.563-1.207-.94-1.837m-1.427 1.32c-.157-.186-.328-.313-.382-.573.174-.017.14-.16.245-.259.33-.3.893-.51 1.238-.1.238.296.333.69.412 1.054.076.369.186.804.316 1.15.08.216.523.621.477.846a.249.249 0 0 1-.04.076c-.2.237-.602.313-.888.198-.325-.127-.411-.501-.698-.687-.264-.166-.426-.198-.42-.552.014-.455.075-.77-.26-1.154m25.671-15.912c-1.109.516-2.205.72-3.434.72-2.63 0-5.148.35-7.816.16-2.86-.206-5.775-.653-8.424-1.797-.502-.222-.602-.322-.952-.755-.798-.987-1.564-1.676-2.673-2.321-1.29-.75-2.668-1.367-3.772-2.474-.938-.945-1.932-1.95-.678-2.998 1.334-1.125 2.91-.609 4.34-1.398 1.76-.973 3.821-.846 5.762-.76.754.034 1.481-.1 2.233-.005 1.992.256 3.806 1.19 5.774 1.544 1.205.215 2.292.81 3.34 1.41.697.404 1.419.768 2.082 1.227a15.427 15.427 0 0 1 3.983 4.025c.411.616.818 1.09.602 1.79-.205.647-.687.909-.367 1.632M38.345 17.805c1.199-1.694 2.462-2.154 4.22-2.972.144-.066.291-.137.45-.21 1.772-.856 3.422-1.56 5.307-2.21 1.892-.652 3.873-.796 5.856-.718 1.755.066 3.755.151 5.39.804 1.38.55 3.106.647 4.401 1.32.68.356 1.435.535 2.115.884.64.323 1 .821 1.562 1.251.48.37 1.023.626 1.518.963.597.423.994 1.095 1.547 1.574.507.45 1.119.807 1.584 1.305 1.155 1.24 1.97 2.386 2.509 3.972.47 1.363 1.55 2.463 2.117 3.795.421.987.622 2.163.595 3.236-.034 1.207-.465 3.057-1.062 4.115-.838 1.474-1.565 3.03-2.598 4.382-.849 1.103-2.47 2.19-3.799 1.342-1.584-1.012-2.528-3.238-3.74-4.646-.668-.777-2.154-1.999-3.03-2.53-.953-.571-2.157-.857-3.156-1.211-3.572-1.271-7.204-1.902-10.986-2.083-2.668-.13-5.165.352-7.81.692-1.098.142-1.776.591-2.79.921-1.052.345-4.408.985-4.357-.933.02-.86.43-1.633.33-2.52-.13-1.144-.668-2.165-.563-3.35.272-3.143 2.71-4.8 4.39-7.173M26.425 37.71c-.019.367-.019.526-.178.807-.11.195-.267.371-.372.579-.176.357-.267.675-.517.948-.736.817-1.184 1.882-1.74 2.82-.497.853-.578 1.838-.933 2.71-.225.55-.21 1.108-.487 1.65-.254.502-.154 1.26-.286 1.792-.201.816-.226 1.657-.201 2.49.02.675.071 1.283.02 1.946-.054.589.217 1.18.29 1.764.091.7.253 1.423.197 2.119-.044.523.041 1.01.23 1.493.152.396.418.91.037 1.286-.573.562-1.787-.208-2.363-.416-1.074-.396-2.247-.493-3.297-.94a8.042 8.042 0 0 1-1.503-.844c-.534-.381-.96-.906-1.415-1.378-.426-.44-.492-.973-.798-1.474-.372-.616-.938-1.073-1.295-1.718a9.662 9.662 0 0 1-.78-1.865c-.444-1.449-.875-2.793-.96-4.32-.03-.467.041-.729.142-1.15.13-.503.063-1.062.14-1.583.148-1.065.787-2.023 1.387-2.893.309-.448.592-.663.96-1.012.435-.423.57-1.083 1.008-1.513.287-.271.58-.34.903-.528.402-.237.767-.57 1.173-.816.362-.223.727-.445 1.07-.716.55-.443 1.158-.775 1.88-.804 1.37-.047 2.744-.377 4.122-.555.654-.08 1.315-.408 1.988-.252.582.132 1.148.645 1.42 1.168.21.396.17.773.159 1.205m57.528-5.657c-.142-1.58-.639-3.456-1.505-4.783-.512-.782-.664-1.591-1.065-2.451-.431-.91-1.278-1.288-1.836-2.112-.933-1.38-1.398-2.593-2.639-3.695-1.138-1.007-2.247-1.83-3.28-2.904-2.228-2.316-4.97-3.634-7.995-4.509-.947-.27-1.897-.557-2.86-.835-2.633-.756-5.311-1.452-8.046-1.699-2.558-.23-5.201.188-7.693.643-1.18.212-2.265.618-3.427.928-1.55.411-3.295.501-4.771 1.125-.742.31-1.685.774-2.492 1.185-.838.43-1.65.902-2.495 1.315-1.177.574-2.658.965-3.547 2.011-1.434-.049-2.142 2.412-2.773 3.395-.585.921-1.599 1.454-2.086 2.458-.326.668-.135 1.369-.272 2.09-.176.892-.465 1.764-.641 2.661-.286 1.45-.086 2.982-.12 4.458-.015.599.22 1.716-.042 2.275-.22.457-.942.301-1.348.31-.292.003-.617-.043-.904.01a11.97 11.97 0 0 1-1.248.172c-.627.06-1.258.134-1.88.22-.984.136-1.936.44-2.91.618-1.014.183-1.947.57-2.936.836-.57.154-1.143.342-1.645.66-.44.278-.783.672-1.204.972-.274.193-.507.198-.808.245-.38.058-.747.278-1.087.435-.803.374-1.662.89-2.318 1.49-.698.643-1.385 1.323-1.88 2.136-.529.873-.707 1.882-.86 2.877-.065.423-.24.828-.286 1.266-.053.489-.039.98-.039 1.471 0 1.115-.06 2.251.054 3.356.047.53.086 1.06.162 1.588.076.518.266 1 .367 1.513.044.23 0 .472.073.694.076.242.186.516.292.75.281.602.687 1.178 1.099 1.706.43.555.842 1.044 1.162 1.672.187.354.287.775.578 1.063.33.32.642.645.899 1.024.215.308.34.67.597.943.355.372.827.636 1.297.846.372.173.708.408 1.08.594 1.476.72 2.964 1.425 4.509 1.984.663.242 1.356.408 2.017.66.436.166.773.482 1.19.67.597.274 1.302.34 1.931.515.862.242 1.62.389 2.516.497 1.114.134 2.218.344 3.342.334.582-.005 1.084.132 1.535.509.506.43.869 1.077 1.449 1.42.568.332 1.104.584 1.62 1.019.306.256.644.51.928.799.172.178.277.413.468.574.597.501 1.353.9 1.99 1.357.764.554 1.591 1.29 2.484 1.635.637.244 1.354.163 2.005.352.718.2 1.43.62 2.123.894 1.033.403 2.041.55 3.111.802 2.08.488 4.208-.13 6.264.39.788.203 1.535.394 2.358.43 3.326.165 6.75.135 10.024-.571.857-.18 1.74-.594 2.151-1.408.164-.313.164-.606.421-.872.382-.386 1.073-.484 1.535-.765 1.293-.792 2.693-1.924 3.773-2.996.597-.59.57-1.296.888-2.01.375-.85 1.239-1.15 1.81-1.808.697-.804 1.05-2.226 1.375-3.228.25-.78.521-1.464.436-2.295-.081-.73.076-1.386.13-2.139.1-1.459.237-2.93.386-4.404.086-.882-.044-1.76-.1-2.634-.054-.733 0-1.46-.181-2.178-.115-.479-.532-1.1-.49-1.603.083-1.002 2.225-1.59 2.942-2.165.497-.401.928-.843 1.41-1.266.742-.653 1.596-1.45 2.103-2.317.33-.552.45-1.141.852-1.662.362-.474.602-.83.793-1.386.35-1.006.622-2.09.808-3.123.176-.982.34-1.957.387-2.957.034-.675.054-1.405-.015-2.077"/>
    </g>
</svg>
