<svg
  width="392px"
  height="273px"
  viewBox="0 0 392 273"
  version="1.1"
  xmlns="http://www.w3.org/2000/svg"
  xmlns:xlink="http://www.w3.org/1999/xlink"
>
  <g transform="translate(0.100000, 0.200000)" fill-rule="nonzero">
    <g transform="translate(0.938321, 39.426118)">
      <path
        d="M276.661679,174.473882 C274.961679,174.573882 273.161679,175.673882 269.861679,178.173882 C267.561679,190.073882 268.161679,201.473882 272.861679,209.973882 C300.061679,259.273882 363.361679,221.073882 368.461679,172.873882 C346.661679,172.473882 300.561679,173.173882 276.661679,174.473882 Z"
        id="Path"
      ></path>
      <path
        d="M131.561679,215.073882 C134.761679,212.073882 137.661679,208.773882 140.261679,205.173882 C142.961679,201.473882 145.461679,197.473882 147.661679,193.473882 L51.7616788,193.473882 C57.5616788,228.373882 93.9616788,250.573882 131.561679,215.073882 Z"
        id="Path"
      ></path>
      <path
        d="M385.661679,130.673882 C376.761679,106.573882 350.661679,93.2738822 328.061679,87.3738822 C327.161679,87.1738822 326.361679,86.9738822 325.461679,86.7738822 C314.861679,69.9738822 304.561679,55.1738822 295.361679,37.0738822 C296.361679,37.4738822 297.461679,37.8738822 298.561679,38.1738822 C306.061679,40.1738822 316.361679,39.6738822 316.361679,36.9738822 C316.261679,26.3738822 305.561679,-6.92611777 277.461679,8.87388223 L271.161679,3.67388223 C269.761679,2.57388223 267.761679,1.67388223 265.561679,1.07388223 C256.261679,-1.32611777 241.761679,0.67388223 235.961679,3.37388223 C224.061679,8.97388223 225.461679,26.5738822 235.361679,29.1738822 C237.061679,29.5738822 239.061679,29.5738822 241.261679,28.9738822 C245.261679,27.8738822 248.961679,27.6738822 252.361679,28.5738822 C262.461679,31.1738822 269.861679,42.7738822 273.761679,63.7738822 C276.161679,76.7738822 279.461679,86.4738822 280.561679,92.3738822 C260.561679,103.573882 233.661679,124.373882 221.061679,144.373882 C207.261679,151.373882 195.361679,152.373882 186.261679,149.973882 C176.761679,147.473882 170.461679,141.273882 168.761679,134.373882 C163.661679,113.673882 175.761679,98.5738822 199.661679,75.2738822 C205.961679,69.1738822 200.561679,57.6738822 193.761679,55.9738822 C193.561679,55.9738822 193.461679,55.8738822 193.261679,55.8738822 C177.061679,52.9738822 134.761679,51.1738822 112.461679,50.4738822 L113.561679,55.7738822 C113.561679,62.5738822 117.261679,63.0738822 110.461679,63.0738822 L69.7616788,63.9738822 C69.9616788,64.1738822 70.1616788,64.4738822 70.4616788,64.6738822 C49.2616788,75.4738822 44.1616788,80.5738822 29.9616788,95.0738822 C16.6616788,108.773882 6.36167878,125.573882 1.36167878,145.073882 C-0.438321218,152.273882 -0.838321218,160.873882 2.56167878,167.173882 C5.56167878,172.673882 10.2616788,175.373882 15.3616788,176.673882 C19.5616788,177.773882 23.9616788,177.973882 28.2616788,177.973882 L80.1616788,178.473882 C80.6616788,178.473882 81.3616788,178.473882 82.1616788,178.473882 C82.3616788,178.473882 82.6616788,178.473882 82.8616788,178.473882 C86.0616788,178.473882 119.161679,178.473882 122.261679,178.573882 C123.161679,178.573882 124.161679,178.573882 125.061679,178.573882 C127.561679,178.573882 130.061679,178.573882 132.561679,178.573882 C133.661679,178.573882 134.861679,178.573882 136.061679,178.573882 C139.161679,178.573882 142.361679,178.573882 145.561679,178.573882 C145.961679,178.573882 146.261679,178.573882 146.661679,178.573882 C150.261679,178.573882 153.861679,178.573882 157.461679,178.573882 L157.861679,178.573882 C177.861679,178.473882 199.961679,178.273882 230.661679,177.673882 C249.861679,179.073882 256.161679,159.073882 275.461679,157.973882 C277.961679,157.873882 280.761679,157.673882 283.661679,157.573882 C285.161679,157.473882 286.661679,157.473882 288.261679,157.373882 C290.461679,157.273882 292.861679,157.173882 295.161679,157.173882 C296.761679,157.073882 298.261679,157.073882 299.861679,156.973882 C302.961679,156.873882 306.061679,156.773882 309.261679,156.773882 C310.461679,156.773882 311.661679,156.673882 312.861679,156.673882 C316.861679,156.573882 320.861679,156.473882 324.861679,156.473882 C326.961679,156.473882 328.961679,156.373882 330.961679,156.373882 C333.161679,156.373882 335.361679,156.273882 337.561679,156.273882 C339.561679,156.273882 341.561679,156.273882 343.561679,156.273882 C345.561679,156.273882 347.561679,156.273882 349.461679,156.273882 C351.461679,156.273882 353.361679,156.273882 355.161679,156.273882 C356.861679,156.273882 358.461679,156.273882 360.061679,156.273882 C361.861679,156.273882 363.561679,156.273882 365.161679,156.273882 C367.761679,156.273882 370.361679,156.373882 372.461679,156.373882 C387.961679,157.373882 396.361679,159.373882 385.661679,130.673882 Z"
        id="Path"
      ></path>
    </g>
    <path
      d="M103.1,0 L15.6,0 C7,0 0,7 0,15.6 L0,93.7 C0,102.3 7,109.3 15.6,109.3 L103.1,109.3 C111.7,109.3 118.701044,102.3 118.701044,93.7 L118.701044,15.6 C118.8,7 111.7,0 103.1,0 Z M95.4,40.9 C90.5,60.1 91.5,63.9 87.7,76.9 C87.3,78.4 85.6,80.7 84.2,80.7 C84,80.7 83.7,80.6 83.5,80.5 C76.8,75.7 66.9,73.5 57.7,73.5 C50,73.5 42.9,75 38.5,77.7 C36.4,79 35.1,79.6 34.2,79.6 C32.2,79.6 32.4,76.9 31.3,73.8 C27.8,58.1 27.1,53 23.5,42.6 C21.9,37.9 24.7,35.7 28,35.7 C29.8,35.7 31.9,36.4 33.4,37.8 C38.1,41.9 42,48.8 45.4,48.8 C45.5,48.8 45.7,48.8 45.8,48.8 C50.3,47.5 51.5,38.4 54.4,32.4 C55.5,30.2 57.9,28.7 60.3,28.7 C62.1,28.7 63.9,29.5 65.1,31.4 C68.4,37 71.5,44.5 75,44.9 C75.1,44.9 75.1,44.9 75.2,44.9 C78.9,44.9 81.7,39.4 86.4,34.2 C87.5,33 88.8,32.4 90,32.4 C93.4,32.4 96.5,36.5 95.4,40.9 Z"
    ></path>
  </g>
</svg>
