<svg _ngcontent-mti-c185="" xmlns="http://www.w3.org/2000/svg" viewBox="0 0 155.57 128.18"><path _ngcontent-mti-c185="" d="M.37,114.08c15.91,1.21,30.46-2.55,43.55-11.68.66-.46,1.67-.72,1.55-2-14-1.48-23.67-8.71-29.12-22.13,4.66.13,8.92.81,13.49-.81a9.67,9.67,0,0,0-1.6-.92c-12.08-3.83-19.51-12-22.53-24.22a45,45,0,0,1-.79-5.2,8,8,0,0,1,.22-1.66A35.43,35.43,0,0,0,17.6,49.11c.2,0,.42-.13,1-.31-.77-.8-1.36-1.5-2-2.1A31.48,31.48,0,0,1,6.29,30.29,31.81,31.81,0,0,1,8.61,7.9c.24-.48.58-.91,1-1.63,13.67,16.09,30.5,26.79,51,31.42,5,1.14,10.1,2.18,15.45,1.93a4.69,4.69,0,0,0,.15-1.28A32,32,0,0,1,100.37,1a30.74,30.74,0,0,1,29.17,7.47,4.87,4.87,0,0,0,5.19,1.17,67,67,0,0,0,16.18-6.46c.11-.06.31,0,.81,0a25.07,25.07,0,0,1-5,9.08c-2.24,2.56-4.7,4.93-7.16,7.48,2.76.37,5.36-.56,8-1.27s5.12-1.62,8-2.55a10.46,10.46,0,0,1-.76,1.59,61.49,61.49,0,0,1-12.69,13,3.79,3.79,0,0,0-1.77,3.63,72.88,72.88,0,0,1-.9,14.3,91.78,91.78,0,0,1-5.52,21.26,93.87,93.87,0,0,1-12,22,87.44,87.44,0,0,1-51,34,99.83,99.83,0,0,1-21.83,2.54,91.89,91.89,0,0,1-48.2-13,6.4,6.4,0,0,0-.89-.37c.12-.25.25-.5.37-.74"></path></svg>