<svg _ngcontent-mti-c185="" xmlns="http://www.w3.org/2000/svg" viewBox="0 0 168.8 168.45"><path _ngcontent-mti-c185="" d="M84.69,169.39c-11,0-21.92,0-32.88,0a57,57,0,0,1-19.75-3.2C17,160.59,7.6,149.9,3.68,134.33a76.59,76.59,0,0,1-1.92-14.22C.54,99.81,1.13,79.5,1.21,59.2a94.65,94.65,0,0,1,2.4-22.6A43.87,43.87,0,0,1,23.32,9.05,45,45,0,0,1,41.48,2.57,126.84,126.84,0,0,1,56.29,1.39C73.56,1.13,90.83.91,108.1,1a161.43,161.43,0,0,1,22,1.61c14.31,2.09,25.58,9.2,33,21.88a45.62,45.62,0,0,1,6,19.06c.36,4.14.72,8.29.73,12.43q.1,31.2,0,62.39a61,61,0,0,1-3.9,22.07,42.87,42.87,0,0,1-18.34,21.79,49.4,49.4,0,0,1-18.23,6.25c-7.24,1.1-14.52.76-21.79.87-7.6.11-15.2,0-22.79,0Zm1-14.79v.05h27.83a71.16,71.16,0,0,0,15.7-1.44,39.39,39.39,0,0,0,9.71-3.33c7.61-4,12.18-10.6,14.23-18.95a75.48,75.48,0,0,0,1.71-17.38c.16-22.06.83-44.14-.6-66.18a35.18,35.18,0,0,0-4.07-14.93C144.92,23,136.3,18.68,126,17.33a108.91,108.91,0,0,0-13.64-.8c-17.51-.09-35-.16-52.53,0-7,.06-14.07,0-20.87,2.2a32.74,32.74,0,0,0-9.11,4.14c-6.95,4.89-10.52,11.84-12.12,20A87.33,87.33,0,0,0,16.5,59.51c-.08,19.66-.8,39.32.27,59a58.82,58.82,0,0,0,2.43,15.29A27.46,27.46,0,0,0,34.78,151c6.43,2.85,13.33,3.35,20.17,3.55,10.23.3,20.47.08,30.7.08"></path><path _ngcontent-mti-c185="" d="M85.7,128.73c-22.24.62-44.67-19-43.37-45.36a43.47,43.47,0,0,1,86.89,2.53c-.2,23.62-19.76,43.33-43.52,42.83m-.12-15a28.13,28.13,0,1,0-28-27.81,28.21,28.21,0,0,0,28,27.81" transform="translate(-1 -1)"></path><path _ngcontent-mti-c185="" d="M120.5,40.46a10.24,10.24,0,0,1,10.34-10.09,10.22,10.22,0,0,1,0,20.44A10.29,10.29,0,0,1,120.5,40.46" transform="translate(-1 -1)"></path></svg>