<svg _ngcontent-mti-c185="" xmlns="http://www.w3.org/2000/svg" xmlns:xlink="http://www.w3.org/1999/xlink" viewBox="0 0 92.89 185.17"><path _ngcontent-mti-c185="" d="M58,67c1,0,1.73.12,2.43.12H90.67c2.07,0,2.21.17,2.22,2.15,0,.8,0,1.6,0,2.4q0,12,0,24c0,3,0,3-3.12,3H58.07c-.07,1.16-.19,2.16-.19,3.16q0,37,0,73.91c0,2.48,0,5,0,7.44,0,.61-.1,1.23-.16,2h-34a4,4,0,0,1-.25-.94q0-37.8.05-75.59c0-2.64,0-5.28,0-7.92,0-1.85-.23-2-2.11-2-6.24,0-12.47,0-18.71,0C.15,98.69,0,98.57,0,96q0-13.2,0-26.4c0-2.33.11-2.44,2.44-2.44,6.16,0,12.32,0,18.48,0,2.51,0,2.55-.09,2.6-2.53.12-5.43,0-10.88.47-16.3a69,69,0,0,1,8.14-28.11C37,11.34,44.54,6.18,54,3.42A92.73,92.73,0,0,1,63.3,1.36C71.85-.21,80.49-.08,89.13.12a8.58,8.58,0,0,1,1.43.16c2.23.37,2.32.48,2.32,2.78v26.4c0,.47,0,.95,0,1.44a1.28,1.28,0,0,1-1.54,1.39c-.8,0-1.59-.13-2.39-.2A56.51,56.51,0,0,0,71.31,33c-6.47,1.41-12.93,7.25-12.91,15.51,0,5.35-.34,10.7-.51,16,0,.7.06,1.41.11,2.4"></path></svg>